  0
SECTION
  2
HEADER
  9
$ACADVER
  1
AC1015
  9
$ACADMAINTVER
 70
     6
  9
$DWGCODEPAGE
  3
ANSI_1252
  9
$INSBASE
 10
0.0
 20
0.0
 30
0.0
  9
$EXTMIN
 10
-36.8
 20
-36.7876602485
 30
0.0
  9
$EXTMAX
 10
36.8
 20
36.7876602485
 30
0.0
  9
$LIMMIN
 10
0.0
 20
0.0
  9
$LIMMAX
 10
420.0
 20
297.0
  9
$ORTHOMODE
 70
     0
  9
$REGENMODE
 70
     1
  9
$FILLMODE
 70
     1
  9
$QTEXTMODE
 70
     0
  9
$MIRRTEXT
 70
     1
  9
$LTSCALE
 40
1.0
  9
$ATTMODE
 70
     1
  9
$TEXTSIZE
 40
6.35
  9
$TRACEWID
 40
1.0
  9
$TEXTSTYLE
  7
Standard
  9
$CLAYER
  8
0
  9
$CELTYPE
  6
ByLayer
  9
$CECOLOR
 62
   256
  9
$CELTSCALE
 40
1.0
  9
$DISPSILH
 70
     0
  9
$DIMSCALE
 40
1.0
  9
$DIMASZ
 40
6.0
  9
$DIMEXO
 40
1.0
  9
$DIMDLI
 40
3.75
  9
$DIMRND
 40
0.0
  9
$DIMDLE
 40
0.0
  9
$DIMEXE
 40
1.0
  9
$DIMTP
 40
0.0
  9
$DIMTM
 40
0.0
  9
$DIMTXT
 40
6.35
  9
$DIMCEN
 40
2.5
  9
$DIMTSZ
 40
0.0
  9
$DIMTOL
 70
     0
  9
$DIMLIM
 70
     0
  9
$DIMTIH
 70
     1
  9
$DIMTOH
 70
     1
  9
$DIMSE1
 70
     0
  9
$DIMSE2
 70
     0
  9
$DIMTAD
 70
     0
  9
$DIMZIN
 70
     0
  9
$DIMBLK
  1

  9
$DIMASO
 70
     1
  9
$DIMSHO
 70
     1
  9
$DIMPOST
  1

  9
$DIMAPOST
  1

  9
$DIMALT
 70
     0
  9
$DIMALTD
 70
     3
  9
$DIMALTF
 40
0.0393700787
  9
$DIMLFAC
 40
1.0
  9
$DIMTOFL
 70
     1
  9
$DIMTVP
 40
0.0
  9
$DIMTIX
 70
     0
  9
$DIMSOXD
 70
     0
  9
$DIMSAH
 70
     0
  9
$DIMBLK1
  1

  9
$DIMBLK2
  1

  9
$DIMSTYLE
  2
ISO-25
  9
$DIMCLRD
 70
     0
  9
$DIMCLRE
 70
     0
  9
$DIMCLRT
 70
     0
  9
$DIMTFAC
 40
1.0
  9
$DIMGAP
 40
1.524
  9
$DIMJUST
 70
     0
  9
$DIMSD1
 70
     0
  9
$DIMSD2
 70
     0
  9
$DIMTOLJ
 70
     0
  9
$DIMTZIN
 70
     0
  9
$DIMALTZ
 70
     0
  9
$DIMALTTZ
 70
     0
  9
$DIMUPT
 70
     0
  9
$DIMDEC
 70
     3
  9
$DIMTDEC
 70
     2
  9
$DIMALTU
 70
     2
  9
$DIMALTTD
 70
     3
  9
$DIMTXSTY
  7
Standard
  9
$DIMAUNIT
 70
     0
  9
$DIMADEC
 70
     3
  9
$DIMALTRND
 40
0.0
  9
$DIMAZIN
 70
     0
  9
$DIMDSEP
 70
    44
  9
$DIMATFIT
 70
     3
  9
$DIMFRAC
 70
     0
  9
$DIMLDRBLK
  1

  9
$DIMLUNIT
 70
     2
  9
$DIMLWD
 70
    -2
  9
$DIMLWE
 70
    -2
  9
$DIMTMOVE
 70
     0
  9
$LUNITS
 70
     2
  9
$LUPREC
 70
     3
  9
$SKETCHINC
 40
1.0
  9
$FILLETRAD
 40
10.0
  9
$AUNITS
 70
     0
  9
$AUPREC
 70
     3
  9
$MENU
  1
.
  9
$ELEVATION
 40
0.0
  9
$PELEVATION
 40
0.0
  9
$THICKNESS
 40
0.0
  9
$LIMCHECK
 70
     0
  9
$CHAMFERA
 40
0.0
  9
$CHAMFERB
 40
0.0
  9
$CHAMFERC
 40
0.0
  9
$CHAMFERD
 40
0.0
  9
$SKPOLY
 70
     0
  9
$TDCREATE
 40
2458681.707267477
  9
$TDUCREATE
 40
2458681.998934144
  9
$TDUPDATE
 40
2458681.707301539
  9
$TDUUPDATE
 40
2458681.998968206
  9
$TDINDWG
 40
0.0000000116
  9
$TDUSRTIMER
 40
0.0000000116
  9
$USRTIMER
 70
     1
  9
$ANGBASE
 50
0.0
  9
$ANGDIR
 70
     0
  9
$PDMODE
 70
     0
  9
$PDSIZE
 40
-1.0
  9
$PLINEWID
 40
0.0
  9
$SPLFRAME
 70
     0
  9
$SPLINETYPE
 70
     6
  9
$SPLINESEGS
 70
     8
  9
$HANDSEED
  5
34B
  9
$SURFTAB1
 70
     6
  9
$SURFTAB2
 70
     6
  9
$SURFTYPE
 70
     6
  9
$SURFU
 70
     6
  9
$SURFV
 70
     6
  9
$UCSBASE
  2

  9
$UCSNAME
  2

  9
$UCSORG
 10
0.0
 20
0.0
 30
0.0
  9
$UCSXDIR
 10
1.0
 20
0.0
 30
0.0
  9
$UCSYDIR
 10
0.0
 20
1.0
 30
0.0
  9
$UCSORTHOREF
  2

  9
$UCSORTHOVIEW
 70
     0
  9
$UCSORGTOP
 10
0.0
 20
0.0
 30
0.0
  9
$UCSORGBOTTOM
 10
0.0
 20
0.0
 30
0.0
  9
$UCSORGLEFT
 10
0.0
 20
0.0
 30
0.0
  9
$UCSORGRIGHT
 10
0.0
 20
0.0
 30
0.0
  9
$UCSORGFRONT
 10
0.0
 20
0.0
 30
0.0
  9
$UCSORGBACK
 10
0.0
 20
0.0
 30
0.0
  9
$PUCSBASE
  2

  9
$PUCSNAME
  2

  9
$PUCSORG
 10
0.0
 20
0.0
 30
0.0
  9
$PUCSXDIR
 10
1.0
 20
0.0
 30
0.0
  9
$PUCSYDIR
 10
0.0
 20
1.0
 30
0.0
  9
$PUCSORTHOREF
  2

  9
$PUCSORTHOVIEW
 70
     0
  9
$PUCSORGTOP
 10
0.0
 20
0.0
 30
0.0
  9
$PUCSORGBOTTOM
 10
0.0
 20
0.0
 30
0.0
  9
$PUCSORGLEFT
 10
0.0
 20
0.0
 30
0.0
  9
$PUCSORGRIGHT
 10
0.0
 20
0.0
 30
0.0
  9
$PUCSORGFRONT
 10
0.0
 20
0.0
 30
0.0
  9
$PUCSORGBACK
 10
0.0
 20
0.0
 30
0.0
  9
$USERI1
 70
     0
  9
$USERI2
 70
     0
  9
$USERI3
 70
     0
  9
$USERI4
 70
     0
  9
$USERI5
 70
     0
  9
$USERR1
 40
0.0
  9
$USERR2
 40
0.0
  9
$USERR3
 40
0.0
  9
$USERR4
 40
0.0
  9
$USERR5
 40
0.0
  9
$WORLDVIEW
 70
     1
  9
$SHADEDGE
 70
     3
  9
$SHADEDIF
 70
    70
  9
$TILEMODE
 70
     1
  9
$MAXACTVP
 70
    64
  9
$PINSBASE
 10
0.0
 20
0.0
 30
0.0
  9
$PLIMCHECK
 70
     0
  9
$PEXTMIN
 10
1.0000000000E+20
 20
1.0000000000E+20
 30
1.0000000000E+20
  9
$PEXTMAX
 10
-1.0000000000E+20
 20
-1.0000000000E+20
 30
-1.0000000000E+20
  9
$PLIMMIN
 10
0.0
 20
0.0
  9
$PLIMMAX
 10
420.0
 20
297.0
  9
$UNITMODE
 70
     0
  9
$VISRETAIN
 70
     1
  9
$PLINEGEN
 70
     0
  9
$PSLTSCALE
 70
     1
  9
$TREEDEPTH
 70
  3020
  9
$CMLSTYLE
  2
Standard
  9
$CMLJUST
 70
     0
  9
$CMLSCALE
 40
20.0
  9
$PROXYGRAPHICS
 70
     1
  9
$MEASUREMENT
 70
     1
  9
$CELWEIGHT
370
    -1
  9
$ENDCAPS
280
     0
  9
$JOINSTYLE
280
     0
  9
$LWDISPLAY
290
     1
  9
$INSUNITS
 70
     4
  9
$HYPERLINKBASE
  1

  9
$STYLESHEET
  1

  9
$XEDIT
290
     1
  9
$CEPSNTYPE
380
     0
  9
$PSTYLEMODE
290
     1
  9
$FINGERPRINTGUID
  2
{FB1848C7-E62E-4CD5-80E0-8DEA973FA3DD}
  9
$VERSIONGUID
  2
{FAEB1C32-E019-11D5-929B-00C0DF256EC4}
  9
$EXTNAMES
290
     1
  9
$PSVPSCALE
 40
0.0
  9
$OLESTARTUP
290
     0
  0
ENDSEC
  0
SECTION
  2
CLASSES
  0
CLASS
  1
ACDBDICTIONARYWDFLT
  2
AcDbDictionaryWithDefault
  3
ObjectDBX Classes
 90
        0
280
     0
281
     0
  0
CLASS
  1
VISUALSTYLE
  2
AcDbVisualStyle
  3
ObjectDBX Classes
 90
     4095
280
     0
281
     0
  0
CLASS
  1
MATERIAL
  2
AcDbMaterial
  3
ObjectDBX Classes
 90
     1153
280
     0
281
     0
  0
CLASS
  1
SCALE
  2
AcDbScale
  3
ObjectDBX Classes
 90
     1153
280
     0
281
     0
  0
CLASS
  1
TABLESTYLE
  2
AcDbTableStyle
  3
ObjectDBX Classes
 90
     4095
280
     0
281
     0
  0
CLASS
  1
MLEADERSTYLE
  2
AcDbMLeaderStyle
  3
ACDB_MLEADERSTYLE_CLASS
 90
     4095
280
     0
281
     0
  0
CLASS
  1
SUN
  2
AcDbSun
  3
SCENEOE
 90
     1153
280
     0
281
     0
  0
CLASS
  1
ACDBPLACEHOLDER
  2
AcDbPlaceHolder
  3
ObjectDBX Classes
 90
        0
280
     0
281
     0
  0
CLASS
  1
LAYOUT
  2
AcDbLayout
  3
ObjectDBX Classes
 90
        0
280
     0
281
     0
  0
ENDSEC
  0
SECTION
  2
TABLES
  0
TABLE
  2
VPORT
  5
8
330
0
100
AcDbSymbolTable
 70
     1
  0
VPORT
  5
29
330
8
100
AcDbSymbolTableRecord
100
AcDbViewportTableRecord
  2
*Active
 70
     0
 10
0.0
 20
0.0
 11
1.0
 21
1.0
 12
0.0
 22
0.0
 13
0.0
 23
0.0
 14
10.0
 24
10.0
 15
10.0
 25
10.0
 16
0.0
 26
0.0
 36
1.0
 17
0.0
 27
0.0
 37
0.0
 40
75.0468269069
 41
1.0003354318
 42
50.0
 43
0.0
 44
0.0
 50
0.0
 51
0.0
 71
     0
 72
   100
 73
     1
 74
     3
 75
     0
 76
     0
 77
     0
 78
     0
281
     0
 65
     1
110
0.0
120
0.0
130
0.0
111
1.0
121
0.0
131
0.0
112
0.0
122
1.0
132
0.0
 79
     0
146
0.0
  0
ENDTAB
  0
TABLE
  2
LTYPE
  5
5
330
0
100
AcDbSymbolTable
 70
     6
  0
LTYPE
  5
14
330
5
100
AcDbSymbolTableRecord
100
AcDbLinetypeTableRecord
  2
ByBlock
 70
     0
  3

 72
    65
 73
     0
 40
0.0
  0
LTYPE
  5
15
330
5
100
AcDbSymbolTableRecord
100
AcDbLinetypeTableRecord
  2
ByLayer
 70
     0
  3

 72
    65
 73
     0
 40
0.0
  0
LTYPE
  5
16
330
5
100
AcDbSymbolTableRecord
100
AcDbLinetypeTableRecord
  2
Continuous
 70
     0
  3
Solid line
 72
    65
 73
     0
 40
0.0
  0
LTYPE
  5
6E
330
5
100
AcDbSymbolTableRecord
100
AcDbLinetypeTableRecord
  2
HIDDEN
 70
     0
  3
Hidden __ __ __ __ __ __ __ __ __ __ __ __ __ __
 72
    65
 73
     2
 40
1.905
 49
1.27
 74
     0
 49
-0.635
 74
     0
  0
LTYPE
  5
6F
330
5
100
AcDbSymbolTableRecord
100
AcDbLinetypeTableRecord
  2
PHANTOM
 70
     0
  3
Phantom ______  __  __  ______  __  __  ______
 72
    65
 73
     6
 40
12.7
 49
6.35
 74
     0
 49
-1.27
 74
     0
 49
1.27
 74
     0
 49
-1.27
 74
     0
 49
1.27
 74
     0
 49
-1.27
 74
     0
  0
LTYPE
  5
70
330
5
100
AcDbSymbolTableRecord
100
AcDbLinetypeTableRecord
  2
CENTER
 70
     0
  3
Center ____ _ ____ _ ____ _ ____ _ ____ _ ____
 72
    65
 73
     4
 40
10.16
 49
6.35
 74
     0
 49
-1.27
 74
     0
 49
1.27
 74
     0
 49
-1.27
 74
     0
  0
LTYPE
  5
71
330
5
100
AcDbSymbolTableRecord
100
AcDbLinetypeTableRecord
  2
CENTERX2
 70
     0
  3
Center (2x) ________  __  ________  __  _____
 72
    65
 73
     4
 40
20.32
 49
12.7
 74
     0
 49
-2.54
 74
     0
 49
2.54
 74
     0
 49
-2.54
 74
     0
  0
LTYPE
  5
72
330
5
100
AcDbSymbolTableRecord
100
AcDbLinetypeTableRecord
  2
DOT2
 70
     0
  3
Dot (.5x) ........................................
 72
    65
 73
     2
 40
0.635
 49
0.0
 74
     0
 49
-0.635
 74
     0
  0
ENDTAB
  0
TABLE
  2
LAYER
  5
2
330
0
100
AcDbSymbolTable
 70
     1
  0
LAYER
  5
10
330
2
100
AcDbSymbolTableRecord
100
AcDbLayerTableRecord
  2
0
 70
     0
 62
     7
  6
Continuous
370
    -3
390
F
  0
ENDTAB
  0
TABLE
  2
STYLE
  5
3
330
0
100
AcDbSymbolTable
 70
     2
  0
STYLE
  5
11
330
3
100
AcDbSymbolTableRecord
100
AcDbTextStyleTableRecord
  2
Standard
 70
     0
 40
0.0
 41
1.0
 50
0.0
 71
     0
 42
6.35
  3
txt
  4

  0
STYLE
  5
348
330
3
100
AcDbSymbolTableRecord
100
AcDbTextStyleTableRecord
  2
SLDTEXTSTYLE0
 70
     0
 40
0.0
 41
0.7
 50
0.0
 71
     0
 42
6.35
  3
TXT
  4

  0
ENDTAB
  0
TABLE
  2
VIEW
  5
6
330
0
100
AcDbSymbolTable
 70
     0
  0
ENDTAB
  0
TABLE
  2
UCS
  5
7
330
0
100
AcDbSymbolTable
 70
     0
  0
ENDTAB
  0
TABLE
  2
APPID
  5
9
330
0
100
AcDbSymbolTable
 70
     1
  0
APPID
  5
12
330
9
100
AcDbSymbolTableRecord
100
AcDbRegAppTableRecord
  2
ACAD
 70
     0
  0
ENDTAB
  0
TABLE
  2
DIMSTYLE
  5
A
330
0
100
AcDbSymbolTable
 70
     1
100
AcDbDimStyleTable
  0
DIMSTYLE
105
27
330
A
100
AcDbSymbolTableRecord
100
AcDbDimStyleTableRecord
  2
ISO-25
 70
     0
 41
2.5
 42
0.625
 43
3.75
 44
1.25
 73
     0
 74
     0
 77
     1
 78
     8
140
2.5
141
2.5
143
0.0393700787
147
0.625
171
     3
172
     1
178
     0
271
     2
272
     2
274
     3
278
    44
283
     0
284
     8
340
11
  0
ENDTAB
  0
TABLE
  2
BLOCK_RECORD
  5
1
330
0
100
AcDbSymbolTable
 70
     1
  0
BLOCK_RECORD
  5
1F
330
1
100
AcDbSymbolTableRecord
100
AcDbBlockTableRecord
  2
*Model_Space
340
22
  0
BLOCK_RECORD
  5
1B
330
1
100
AcDbSymbolTableRecord
100
AcDbBlockTableRecord
  2
*Paper_Space
340
1E
  0
BLOCK_RECORD
  5
23
330
1
100
AcDbSymbolTableRecord
100
AcDbBlockTableRecord
  2
*Paper_Space0
340
26
  0
ENDTAB
  0
ENDSEC
  0
SECTION
  2
BLOCKS
  0
BLOCK
  5
20
330
1F
100
AcDbEntity
  8
0
100
AcDbBlockBegin
  2
*Model_Space
 70
     0
 10
0.0
 20
0.0
 30
0.0
  3
*Model_Space
  1

  0
ENDBLK
  5
21
330
1F
100
AcDbEntity
  8
0
100
AcDbBlockEnd
  0
BLOCK
  5
1C
330
1B
100
AcDbEntity
 67
     1
  8
0
100
AcDbBlockBegin
  2
*Paper_Space
 70
     0
 10
0.0
 20
0.0
 30
0.0
  3
*Paper_Space
  1

  0
ENDBLK
  5
1D
330
1B
100
AcDbEntity
 67
     1
  8
0
100
AcDbBlockEnd
  0
BLOCK
  5
24
330
23
100
AcDbEntity
  8
0
100
AcDbBlockBegin
  2
*Paper_Space0
 70
     0
 10
0.0
 20
0.0
 30
0.0
  3
*Paper_Space0
  1

  0
ENDBLK
  5
25
330
23
100
AcDbEntity
  8
0
100
AcDbBlockEnd
  0
ENDSEC
  0
SECTION
  2
ENTITIES
  0
CIRCLE
  5
181
330
1F
100
AcDbEntity
  8
0
  6
Continuous
 62
     7
370
    25
100
AcDbCircle
 10
-10.0
 20
10.0
 30
0.0
 40
1.898649999999995
  0
CIRCLE
  5
182
330
1F
100
AcDbEntity
  8
0
  6
Continuous
 62
     7
370
    25
100
AcDbCircle
 10
10.0
 20
10.0
 30
0.0
 40
1.898649999999995
  0
CIRCLE
  5
183
330
1F
100
AcDbEntity
  8
0
  6
Continuous
 62
     7
370
    25
100
AcDbCircle
 10
-10.0
 20
-10.0
 30
0.0
 40
1.898649999999995
  0
CIRCLE
  5
184
330
1F
100
AcDbEntity
  8
0
  6
Continuous
 62
     7
370
    25
100
AcDbCircle
 10
10.0
 20
-10.0
 30
0.0
 40
1.898649999999995
  0
CIRCLE
  5
185
330
1F
100
AcDbEntity
  8
0
  6
Continuous
 62
     7
370
    25
100
AcDbCircle
 10
0.0
 20
0.0
 30
0.0
 40
3.100000000000002
  0
ARC
  5
1E0
330
1F
100
AcDbEntity
  8
0
  6
Continuous
 62
     7
370
    25
100
AcDbCircle
 10
0.0
 20
0.0
 30
0.0
 40
34.9989999999693
100
AcDbArc
 50
357.3286312657
 51
358.6713687343
  0
ARC
  5
1E1
330
1F
100
AcDbEntity
  8
0
  6
Continuous
 62
     7
370
    25
100
AcDbCircle
 10
31.2012625826
 20
-15.5317347279
 30
0.0
 40
14.400000000001
100
AcDbArc
 50
67.413452032
 51
74.8652197672
  0
ARC
  5
1E2
330
1F
100
AcDbEntity
  8
0
  6
Continuous
 62
     7
370
    25
100
AcDbCircle
 10
33.0592137254
 20
11.0382044857
 30
0.0
 40
14.39999999999903
100
AcDbArc
 50
277.1347802328
 51
284.586547968
  0
ARC
  5
1E3
330
1F
100
AcDbEntity
  8
0
  6
Continuous
 62
     7
370
    25
100
AcDbCircle
 10
0.0000000001
 20
0.0
 30
0.0
 40
34.99899999987829
100
AcDbArc
 50
353.3286312657
 51
354.6713687343
  0
ARC
  5
1E4
330
1F
100
AcDbEntity
  8
0
  6
Continuous
 62
     7
370
    25
100
AcDbCircle
 10
30.0418188294
 20
-17.6703902569
 30
0.0
 40
14.39999999999946
100
AcDbArc
 50
63.413452032
 51
70.8652197672
  0
ARC
  5
1E5
330
1F
100
AcDbEntity
  8
0
  6
Continuous
 62
     7
370
    25
100
AcDbCircle
 10
33.7486693637
 20
8.7052218002
 30
0.0
 40
14.39999999999944
100
AcDbArc
 50
273.1347802328
 51
280.586547968
  0
ARC
  5
1E6
330
1F
100
AcDbEntity
  8
0
  6
Continuous
 62
     7
370
    25
100
AcDbCircle
 10
0.0000000001
 20
0.0
 30
0.0
 40
34.99899999988842
100
AcDbArc
 50
349.3286312657
 51
350.6713687343
  0
ARC
  5
1E7
330
1F
100
AcDbEntity
  8
0
  6
Continuous
 62
     7
370
    25
100
AcDbCircle
 10
28.7360143546
 20
-19.7229574207
 30
0.0
 40
14.40000000000097
100
AcDbArc
 50
59.413452032
 51
66.8652197672
  0
ARC
  5
1E8
330
1F
100
AcDbEntity
  8
0
  6
Continuous
 62
     7
370
    25
100
AcDbCircle
 10
34.2737048772
 20
6.329828149
 30
0.0
 40
14.39999999999957
100
AcDbArc
 50
269.1347802328
 51
276.586547968
  0
ARC
  5
1E9
330
1F
100
AcDbEntity
  8
0
  6
Continuous
 62
     7
370
    25
100
AcDbCircle
 10
0.0000000001
 20
0.0
 30
0.0
 40
34.99899999993256
100
AcDbArc
 50
345.3286312657
 51
346.6713687343
  0
ARC
  5
1EA
330
1F
100
AcDbEntity
  8
0
  6
Continuous
 62
     7
370
    25
100
AcDbCircle
 10
27.2902109064
 20
-21.6794363186
 30
0.0
 40
14.40000000000034
100
AcDbArc
 50
55.413452032
 51
62.8652197672
  0
ARC
  5
1EB
330
1F
100
AcDbEntity
  8
0
  6
Continuous
 62
     7
370
    25
100
AcDbCircle
 10
34.6317623458
 20
3.9235962114
 30
0.0
 40
14.39999999999882
100
AcDbArc
 50
265.1347802328
 51
272.586547968
  0
ARC
  5
1EC
330
1F
100
AcDbEntity
  8
0
  6
Continuous
 62
     7
370
    25
100
AcDbCircle
 10
0.0000000002
 20
-0.0000000001
 30
0.0
 40
34.99899999983405
100
AcDbArc
 50
341.3286312657
 51
342.6713687343
  0
ARC
  5
1ED
330
1F
100
AcDbEntity
  8
0
  6
Continuous
 62
     7
370
    25
100
AcDbCircle
 10
25.7114522939
 20
-23.5302951819
 30
0.0
 40
14.3999999999995
100
AcDbArc
 50
51.413452032
 51
58.8652197672
  0
ARC
  5
1EE
330
1F
100
AcDbEntity
  8
0
  6
Continuous
 62
     7
370
    25
100
AcDbCircle
 10
34.8210973494
 20
1.4982489074
 30
0.0
 40
14.39999999999961
100
AcDbArc
 50
261.1347802328
 51
268.586547968
  0
ARC
  5
1EF
330
1F
100
AcDbEntity
  8
0
  6
Continuous
 62
     7
370
    25
100
AcDbCircle
 10
0.0000000002
 20
-0.0000000001
 30
0.0
 40
34.99899999982285
100
AcDbArc
 50
337.3286312657
 51
338.6713687343
  0
ARC
  5
1F0
330
1F
100
AcDbEntity
  8
0
  6
Continuous
 62
     7
370
    25
100
AcDbCircle
 10
24.0074300703
 20
-25.2665168123
 30
0.0
 40
14.39999999999816
100
AcDbArc
 50
47.413452032
 51
54.8652197672
  0
ARC
  5
1F1
330
1F
100
AcDbEntity
  8
0
  6
Continuous
 62
     7
370
    25
100
AcDbCircle
 10
34.840787467
 20
-0.9343977146
 30
0.0
 40
14.39999999999866
100
AcDbArc
 50
257.1347802328
 51
264.586547968
  0
ARC
  5
1F2
330
1F
100
AcDbEntity
  8
0
  6
Continuous
 62
     7
370
    25
100
AcDbCircle
 10
0.0000000001
 20
0.0
 30
0.0
 40
34.99899999992559
100
AcDbArc
 50
333.3286312657
 51
334.6713687343
  0
ARC
  5
1F3
330
1F
100
AcDbEntity
  8
0
  6
Continuous
 62
     7
370
    25
100
AcDbCircle
 10
22.1864460607
 20
-26.8796425126
 30
0.0
 40
14.39999999999971
100
AcDbArc
 50
43.413452032
 51
50.8652197672
  0
ARC
  5
1F4
330
1F
100
AcDbEntity
  8
0
  6
Continuous
 62
     7
370
    25
100
AcDbCircle
 10
34.6907367702
 20
-3.3624920449
 30
0.0
 40
14.39999999999892
100
AcDbArc
 50
253.1347802328
 51
260.586547968
  0
ARC
  5
1F5
330
1F
100
AcDbEntity
  8
0
  6
Continuous
 62
     7
370
    25
100
AcDbCircle
 10
0.0000000001
 20
-0.0000000001
 30
0.0
 40
34.99899999986008
100
AcDbArc
 50
329.3286312657
 51
330.6713687343
  0
ARC
  5
1F6
330
1F
100
AcDbEntity
  8
0
  6
Continuous
 62
     7
370
    25
100
AcDbCircle
 10
20.257371916
 20
-28.3618132965
 30
0.0
 40
14.3999999999975
100
AcDbArc
 50
39.413452032
 51
46.8652197672
  0
ARC
  5
1F7
330
1F
100
AcDbEntity
  8
0
  6
Continuous
 62
     7
370
    25
100
AcDbCircle
 10
34.3716762909
 20
-5.7742046519
 30
0.0
 40
14.39999999999861
100
AcDbArc
 50
249.1347802328
 51
256.586547968
  0
ARC
  5
1F8
330
1F
100
AcDbEntity
  8
0
  6
Continuous
 62
     7
370
    25
100
AcDbCircle
 10
0.0000000001
 20
0.0
 30
0.0
 40
34.9989999999342
100
AcDbArc
 50
325.3286312657
 51
326.6713687343
  0
ARC
  5
1F9
330
1F
100
AcDbEntity
  8
0
  6
Continuous
 62
     7
370
    25
100
AcDbCircle
 10
18.2296058916
 20
-29.705808177
 30
0.0
 40
14.39999999999828
100
AcDbArc
 50
35.413452032
 51
42.8652197672
  0
ARC
  5
1FA
330
1F
100
AcDbEntity
  8
0
  6
Continuous
 62
     7
370
    25
100
AcDbCircle
 10
33.8851604598
 20
-8.1577859144
 30
0.0
 40
14.39999999999854
100
AcDbArc
 50
245.1347802328
 51
252.586547968
  0
ARC
  5
1FB
330
1F
100
AcDbEntity
  8
0
  6
Continuous
 62
     7
370
    25
100
AcDbCircle
 10
0.0000000001
 20
0.0
 30
0.0
 40
34.99899999992057
100
AcDbArc
 50
321.3286312657
 51
322.6713687343
  0
ARC
  5
1FC
330
1F
100
AcDbEntity
  8
0
  6
Continuous
 62
     7
370
    25
100
AcDbCircle
 10
16.1130270597
 20
-30.905079346
 30
0.0
 40
14.39999999999925
100
AcDbArc
 50
31.413452032
 51
38.8652197672
  0
ARC
  5
1FD
330
1F
100
AcDbEntity
  8
0
  6
Continuous
 62
     7
370
    25
100
AcDbCircle
 10
33.233559533
 20
-10.5016232638
 30
0.0
 40
14.39999999999931
100
AcDbArc
 50
241.1347802328
 51
248.586547968
  0
ARC
  5
1FE
330
1F
100
AcDbEntity
  8
0
  6
Continuous
 62
     7
370
    25
100
AcDbCircle
 10
0.0000000001
 20
-0.0000000001
 30
0.0
 40
34.99899999991896
100
AcDbArc
 50
317.3286312657
 51
318.6713687343
  0
ARC
  5
1FF
330
1F
100
AcDbEntity
  8
0
  6
Continuous
 62
     7
370
    25
100
AcDbCircle
 10
13.9179471797
 20
-31.953784075
 30
0.0
 40
14.40000000000023
100
AcDbArc
 50
27.413452032
 51
34.8652197672
  0
ARC
  5
200
330
1F
100
AcDbEntity
  8
0
  6
Continuous
 62
     7
370
    25
100
AcDbCircle
 10
32.4200480448
 20
-12.7942977603
 30
0.0
 40
14.39999999999905
100
AcDbArc
 50
237.1347802328
 51
244.586547968
  0
ARC
  5
201
330
1F
100
AcDbEntity
  8
0
  6
Continuous
 62
     7
370
    25
100
AcDbCircle
 10
0.0000000001
 20
-0.0000000001
 30
0.0
 40
34.99899999992302
100
AcDbArc
 50
313.3286312657
 51
314.6713687343
  0
ARC
  5
202
330
1F
100
AcDbEntity
  8
0
  6
Continuous
 62
     7
370
    25
100
AcDbCircle
 10
11.65506046
 20
-32.84681318
 30
0.0
 40
14.40000000000131
100
AcDbArc
 50
23.413452032
 51
30.8652197672
  0
ARC
  5
203
330
1F
100
AcDbEntity
  8
0
  6
Continuous
 62
     7
370
    25
100
AcDbCircle
 10
31.4485893414
 20
-15.0246397242
 30
0.0
 40
14.39999999999834
100
AcDbArc
 50
233.1347802328
 51
240.586547968
  0
ARC
  5
204
330
1F
100
AcDbEntity
  8
0
  6
Continuous
 62
     7
370
    25
100
AcDbCircle
 10
0.0000000001
 20
-0.0000000001
 30
0.0
 40
34.99899999991583
100
AcDbArc
 50
309.3286312657
 51
310.6713687343
  0
ARC
  5
205
330
1F
100
AcDbEntity
  8
0
  6
Continuous
 62
     7
370
    25
100
AcDbCircle
 10
9.3353914573
 20
-33.5798159129
 30
0.0
 40
14.40000000000123
100
AcDbArc
 50
19.413452032
 51
26.8652197672
  0
ARC
  5
206
330
1F
100
AcDbEntity
  8
0
  6
Continuous
 62
     7
370
    25
100
AcDbCircle
 10
30.3239162719
 20
-17.1817831537
 30
0.0
 40
14.39999999999861
100
AcDbArc
 50
229.1347802328
 51
236.586547968
  0
ARC
  5
207
330
1F
100
AcDbEntity
  8
0
  6
Continuous
 62
     7
370
    25
100
AcDbCircle
 10
0.0000000001
 20
-0.0000000001
 30
0.0
 40
34.99899999988528
100
AcDbArc
 50
305.3286312657
 51
306.6713687343
  0
ARC
  5
208
330
1F
100
AcDbEntity
  8
0
  6
Continuous
 62
     7
370
    25
100
AcDbCircle
 10
6.9702413659
 20
-34.1492211582
 30
0.0
 40
14.39999999999967
100
AcDbArc
 50
15.413452032
 51
22.8652197672
  0
ARC
  5
209
330
1F
100
AcDbEntity
  8
0
  6
Continuous
 62
     7
370
    25
100
AcDbCircle
 10
29.0515081305
 20
-19.2552186627
 30
0.0
 40
14.39999999999794
100
AcDbArc
 50
225.1347802328
 51
232.586547968
  0
ARC
  5
20A
330
1F
100
AcDbEntity
  8
0
  6
Continuous
 62
     7
370
    25
100
AcDbCircle
 10
0.0
 20
0.0
 30
0.0
 40
34.99899999995637
100
AcDbArc
 50
301.3286312657
 51
302.6713687343
  0
ARC
  5
20B
330
1F
100
AcDbEntity
  8
0
  6
Continuous
 62
     7
370
    25
100
AcDbCircle
 10
4.5711329591
 20
-34.5522548306
 30
0.0
 40
14.40000000000074
100
AcDbArc
 50
11.413452032
 51
18.8652197672
  0
ARC
  5
20C
330
1F
100
AcDbEntity
  8
0
  6
Continuous
 62
     7
370
    25
100
AcDbCircle
 10
27.6375639618
 20
-21.234844682
 30
0.0
 40
14.39999999999857
100
AcDbArc
 50
221.1347802328
 51
228.586547968
  0
ARC
  5
20D
330
1F
100
AcDbEntity
  8
0
  6
Continuous
 62
     7
370
    25
100
AcDbCircle
 10
0.0000000001
 20
-0.0000000001
 30
0.0
 40
34.99899999985365
100
AcDbArc
 50
297.3286312657
 51
298.6713687343
  0
ARC
  5
20E
330
1F
100
AcDbEntity
  8
0
  6
Continuous
 62
     7
370
    25
100
AcDbCircle
 10
2.1497544521
 20
-34.7869533907
 30
0.0
 40
14.39999999999922
100
AcDbArc
 50
7.413452032
 51
14.8652197672
  0
ARC
  5
20F
330
1F
100
AcDbEntity
  8
0
  6
Continuous
 62
     7
370
    25
100
AcDbCircle
 10
26.0889723595
 20
-23.1110166724
 30
0.0
 40
14.39999999999908
100
AcDbArc
 50
217.1347802328
 51
224.586547968
  0
ARC
  5
210
330
1F
100
AcDbEntity
  8
0
  6
Continuous
 62
     7
370
    25
100
AcDbCircle
 10
0.0
 20
-0.0000000001
 30
0.0
 40
34.99899999988578
100
AcDbArc
 50
293.3286312657
 51
294.6713687343
  0
ARC
  5
211
330
1F
100
AcDbEntity
  8
0
  6
Continuous
 62
     7
370
    25
100
AcDbCircle
 10
-0.2820974426
 20
-34.8521734106
 30
0.0
 40
14.39999999999996
100
AcDbArc
 50
3.413452032
 51
10.8652197672
  0
ARC
  5
212
330
1F
100
AcDbEntity
  8
0
  6
Continuous
 62
     7
370
    25
100
AcDbCircle
 10
24.4132779064
 20
-24.8745941128
 30
0.0
 40
14.39999999999986
100
AcDbArc
 50
213.1347802328
 51
220.586547968
  0
ARC
  5
213
330
1F
100
AcDbEntity
  8
0
  6
Continuous
 62
     7
370
    25
100
AcDbCircle
 10
0.0
 20
-0.0000000001
 30
0.0
 40
34.99899999985443
100
AcDbArc
 50
289.3286312657
 51
290.6713687343
  0
ARC
  5
214
330
1F
100
AcDbEntity
  8
0
  6
Continuous
 62
     7
370
    25
100
AcDbCircle
 10
-2.7125749868
 20
-34.747597145
 30
0.0
 40
14.39999999999981
100
AcDbArc
 50
359.413452032
 51
6.8652197672
  0
ARC
  5
215
330
1F
100
AcDbEntity
  8
0
  6
Continuous
 62
     7
370
    25
100
AcDbCircle
 10
22.6186444173
 20
-26.516985031
 30
0.0
 40
14.39999999999848
100
AcDbArc
 50
209.1347802328
 51
216.586547968
  0
ARC
  5
216
330
1F
100
AcDbEntity
  8
0
  6
Continuous
 62
     7
370
    25
100
AcDbCircle
 10
0.0
 20
-0.0000000001
 30
0.0
 40
34.99899999988588
100
AcDbArc
 50
285.3286312657
 51
286.6713687343
  0
ARC
  5
217
330
1F
100
AcDbEntity
  8
0
  6
Continuous
 62
     7
370
    25
100
AcDbCircle
 10
-5.1298371384
 20
-34.4737340789
 30
0.0
 40
14.39999999999979
100
AcDbArc
 50
355.413452032
 51
2.8652197672
  0
ARC
  5
218
330
1F
100
AcDbEntity
  8
0
  6
Continuous
 62
     7
370
    25
100
AcDbCircle
 10
20.7138151662
 20
-28.0301878636
 30
0.0
 40
14.40000000000147
100
AcDbArc
 50
205.1347802328
 51
212.586547968
  0
ARC
  5
219
330
1F
100
AcDbEntity
  8
0
  6
Continuous
 62
     7
370
    25
100
AcDbCircle
 10
0.0
 20
-0.0000000001
 30
0.0
 40
34.99899999992802
100
AcDbArc
 50
281.3286312657
 51
282.6713687343
  0
ARC
  5
21A
330
1F
100
AcDbEntity
  8
0
  6
Continuous
 62
     7
370
    25
100
AcDbCircle
 10
-7.5221072391
 20
-34.0319184457
 30
0.0
 40
14.40000000000006
100
AcDbArc
 50
351.413452032
 51
358.8652197672
  0
ARC
  5
21B
330
1F
100
AcDbEntity
  8
0
  6
Continuous
 62
     7
370
    25
100
AcDbCircle
 10
18.7080702898
 20
-29.4068304386
 30
0.0
 40
14.39999999999967
100
AcDbArc
 50
201.1347802328
 51
208.586547968
  0
ARC
  5
21C
330
1F
100
AcDbEntity
  8
0
  6
Continuous
 62
     7
370
    25
100
AcDbCircle
 10
0.0
 20
-0.0000000002
 30
0.0
 40
34.99899999982254
100
AcDbArc
 50
277.3286312657
 51
278.6713687343
  0
ARC
  5
21D
330
1F
100
AcDbEntity
  8
0
  6
Continuous
 62
     7
370
    25
100
AcDbCircle
 10
-9.8777303894
 20
-33.4243027266
 30
0.0
 40
14.40000000000017
100
AcDbArc
 50
347.413452032
 51
354.8652197672
  0
ARC
  5
21E
330
1F
100
AcDbEntity
  8
0
  6
Continuous
 62
     7
370
    25
100
AcDbCircle
 10
16.6111815754
 20
-30.6402058916
 30
0.0
 40
14.39999999999897
100
AcDbArc
 50
197.1347802328
 51
204.586547968
  0
ARC
  5
21F
330
1F
100
AcDbEntity
  8
0
  6
Continuous
 62
     7
370
    25
100
AcDbCircle
 10
0.0
 20
-0.0000000001
 30
0.0
 40
34.99899999990211
100
AcDbArc
 50
273.3286312657
 51
274.6713687343
  0
ARC
  5
220
330
1F
100
AcDbEntity
  8
0
  6
Continuous
 62
     7
370
    25
100
AcDbCircle
 10
-12.1852302302
 20
-32.6538471645
 30
0.0
 40
14.3999999999993
100
AcDbArc
 50
343.413452032
 51
350.8652197672
  0
ARC
  5
221
330
1F
100
AcDbEntity
  8
0
  6
Continuous
 62
     7
370
    25
100
AcDbCircle
 10
14.4333648542
 20
-31.7243053414
 30
0.0
 40
14.39999999999955
100
AcDbArc
 50
193.1347802328
 51
200.586547968
  0
ARC
  5
222
330
1F
100
AcDbEntity
  8
0
  6
Continuous
 62
     7
370
    25
100
AcDbCircle
 10
0.0
 20
0.0
 30
0.0
 40
34.99899999995889
100
AcDbArc
 50
269.3286312657
 51
270.6713687343
  0
ARC
  5
223
330
1F
100
AcDbEntity
  8
0
  6
Continuous
 62
     7
370
    25
100
AcDbCircle
 10
-14.4333648542
 20
-31.7243053414
 30
0.0
 40
14.3999999999991
100
AcDbArc
 50
339.413452032
 51
346.8652197672
  0
ARC
  5
224
330
1F
100
AcDbEntity
  8
0
  6
Continuous
 62
     7
370
    25
100
AcDbCircle
 10
12.1852302302
 20
-32.6538471645
 30
0.0
 40
14.39999999999858
100
AcDbArc
 50
189.1347802328
 51
196.586547968
  0
ARC
  5
225
330
1F
100
AcDbEntity
  8
0
  6
Continuous
 62
     7
370
    25
100
AcDbCircle
 10
0.0
 20
-0.0000000001
 30
0.0
 40
34.99899999991381
100
AcDbArc
 50
265.3286312657
 51
266.6713687343
  0
ARC
  5
226
330
1F
100
AcDbEntity
  8
0
  6
Continuous
 62
     7
370
    25
100
AcDbCircle
 10
-16.6111815754
 20
-30.6402058916
 30
0.0
 40
14.40000000000033
100
AcDbArc
 50
335.413452032
 51
342.8652197672
  0
ARC
  5
227
330
1F
100
AcDbEntity
  8
0
  6
Continuous
 62
     7
370
    25
100
AcDbCircle
 10
9.8777303894
 20
-33.4243027266
 30
0.0
 40
14.39999999999865
100
AcDbArc
 50
185.1347802328
 51
192.586547968
  0
ARC
  5
228
330
1F
100
AcDbEntity
  8
0
  6
Continuous
 62
     7
370
    25
100
AcDbCircle
 10
0.0
 20
-0.0000000001
 30
0.0
 40
34.99899999993252
100
AcDbArc
 50
261.3286312657
 51
262.6713687343
  0
ARC
  5
229
330
1F
100
AcDbEntity
  8
0
  6
Continuous
 62
     7
370
    25
100
AcDbCircle
 10
-18.7080702898
 20
-29.4068304386
 30
0.0
 40
14.39999999999841
100
AcDbArc
 50
331.413452032
 51
338.8652197672
  0
ARC
  5
22A
330
1F
100
AcDbEntity
  8
0
  6
Continuous
 62
     7
370
    25
100
AcDbCircle
 10
7.5221072391
 20
-34.0319184457
 30
0.0
 40
14.39999999999906
100
AcDbArc
 50
181.1347802328
 51
188.586547968
  0
ARC
  5
22B
330
1F
100
AcDbEntity
  8
0
  6
Continuous
 62
     7
370
    25
100
AcDbCircle
 10
0.0
 20
-0.0000000001
 30
0.0
 40
34.99899999988382
100
AcDbArc
 50
257.3286312657
 51
258.6713687343
  0
ARC
  5
22C
330
1F
100
AcDbEntity
  8
0
  6
Continuous
 62
     7
370
    25
100
AcDbCircle
 10
-20.7138151662
 20
-28.0301878636
 30
0.0
 40
14.39999999999896
100
AcDbArc
 50
327.413452032
 51
334.8652197672
  0
ARC
  5
22D
330
1F
100
AcDbEntity
  8
0
  6
Continuous
 62
     7
370
    25
100
AcDbCircle
 10
5.1298371384
 20
-34.4737340789
 30
0.0
 40
14.39999999999845
100
AcDbArc
 50
177.1347802328
 51
184.586547968
  0
ARC
  5
22E
330
1F
100
AcDbEntity
  8
0
  6
Continuous
 62
     7
370
    25
100
AcDbCircle
 10
0.0
 20
0.0
 30
0.0
 40
34.99900000001387
100
AcDbArc
 50
253.3286312657
 51
254.6713687343
  0
ARC
  5
22F
330
1F
100
AcDbEntity
  8
0
  6
Continuous
 62
     7
370
    25
100
AcDbCircle
 10
-22.6186444173
 20
-26.516985031
 30
0.0
 40
14.40000000000018
100
AcDbArc
 50
323.413452032
 51
330.8652197672
  0
ARC
  5
230
330
1F
100
AcDbEntity
  8
0
  6
Continuous
 62
     7
370
    25
100
AcDbCircle
 10
2.7125749868
 20
-34.747597145
 30
0.0
 40
14.39999999999887
100
AcDbArc
 50
173.1347802328
 51
180.586547968
  0
ARC
  5
231
330
1F
100
AcDbEntity
  8
0
  6
Continuous
 62
     7
370
    25
100
AcDbCircle
 10
0.0
 20
0.0
 30
0.0
 40
34.99899999996092
100
AcDbArc
 50
249.3286312657
 51
250.6713687343
  0
ARC
  5
232
330
1F
100
AcDbEntity
  8
0
  6
Continuous
 62
     7
370
    25
100
AcDbCircle
 10
-24.4132779064
 20
-24.8745941128
 30
0.0
 40
14.39999999999992
100
AcDbArc
 50
319.413452032
 51
326.8652197672
  0
ARC
  5
233
330
1F
100
AcDbEntity
  8
0
  6
Continuous
 62
     7
370
    25
100
AcDbCircle
 10
0.2820974426
 20
-34.8521734106
 30
0.0
 40
14.39999999999922
100
AcDbArc
 50
169.1347802328
 51
176.586547968
  0
ARC
  5
234
330
1F
100
AcDbEntity
  8
0
  6
Continuous
 62
     7
370
    25
100
AcDbCircle
 10
0.0
 20
-0.0000000001
 30
0.0
 40
34.99899999990032
100
AcDbArc
 50
245.3286312657
 51
246.6713687343
  0
ARC
  5
235
330
1F
100
AcDbEntity
  8
0
  6
Continuous
 62
     7
370
    25
100
AcDbCircle
 10
-26.0889723595
 20
-23.1110166724
 30
0.0
 40
14.39999999999979
100
AcDbArc
 50
315.413452032
 51
322.8652197672
  0
ARC
  5
236
330
1F
100
AcDbEntity
  8
0
  6
Continuous
 62
     7
370
    25
100
AcDbCircle
 10
-2.1497544521
 20
-34.7869533907
 30
0.0
 40
14.40000000000117
100
AcDbArc
 50
165.1347802328
 51
172.586547968
  0
ARC
  5
237
330
1F
100
AcDbEntity
  8
0
  6
Continuous
 62
     7
370
    25
100
AcDbCircle
 10
0.0
 20
-0.0000000001
 30
0.0
 40
34.99899999991673
100
AcDbArc
 50
241.3286312657
 51
242.6713687343
  0
ARC
  5
238
330
1F
100
AcDbEntity
  8
0
  6
Continuous
 62
     7
370
    25
100
AcDbCircle
 10
-27.6375639618
 20
-21.234844682
 30
0.0
 40
14.39999999999731
100
AcDbArc
 50
311.413452032
 51
318.8652197672
  0
ARC
  5
239
330
1F
100
AcDbEntity
  8
0
  6
Continuous
 62
     7
370
    25
100
AcDbCircle
 10
-4.5711329591
 20
-34.5522548306
 30
0.0
 40
14.39999999999859
100
AcDbArc
 50
161.1347802328
 51
168.586547968
  0
ARC
  5
23A
330
1F
100
AcDbEntity
  8
0
  6
Continuous
 62
     7
370
    25
100
AcDbCircle
 10
0.0
 20
-0.0000000001
 30
0.0
 40
34.99899999991678
100
AcDbArc
 50
237.3286312657
 51
238.6713687343
  0
ARC
  5
23B
330
1F
100
AcDbEntity
  8
0
  6
Continuous
 62
     7
370
    25
100
AcDbCircle
 10
-29.0515081305
 20
-19.2552186627
 30
0.0
 40
14.40000000000054
100
AcDbArc
 50
307.413452032
 51
314.8652197672
  0
ARC
  5
23C
330
1F
100
AcDbEntity
  8
0
  6
Continuous
 62
     7
370
    25
100
AcDbCircle
 10
-6.9702413659
 20
-34.1492211582
 30
0.0
 40
14.40000000000035
100
AcDbArc
 50
157.1347802328
 51
164.586547968
  0
ARC
  5
23D
330
1F
100
AcDbEntity
  8
0
  6
Continuous
 62
     7
370
    25
100
AcDbCircle
 10
-0.0000000001
 20
-0.0000000001
 30
0.0
 40
34.99899999988736
100
AcDbArc
 50
233.3286312657
 51
234.6713687343
  0
ARC
  5
23E
330
1F
100
AcDbEntity
  8
0
  6
Continuous
 62
     7
370
    25
100
AcDbCircle
 10
-30.3239162719
 20
-17.1817831537
 30
0.0
 40
14.40000000000021
100
AcDbArc
 50
303.413452032
 51
310.8652197672
  0
ARC
  5
23F
330
1F
100
AcDbEntity
  8
0
  6
Continuous
 62
     7
370
    25
100
AcDbCircle
 10
-9.3353914573
 20
-33.5798159129
 30
0.0
 40
14.39999999999847
100
AcDbArc
 50
153.1347802328
 51
160.586547968
  0
ARC
  5
240
330
1F
100
AcDbEntity
  8
0
  6
Continuous
 62
     7
370
    25
100
AcDbCircle
 10
-0.0000000001
 20
-0.0000000001
 30
0.0
 40
34.99899999989545
100
AcDbArc
 50
229.3286312657
 51
230.6713687343
  0
ARC
  5
241
330
1F
100
AcDbEntity
  8
0
  6
Continuous
 62
     7
370
    25
100
AcDbCircle
 10
-31.4485893414
 20
-15.0246397242
 30
0.0
 40
14.40000000000091
100
AcDbArc
 50
299.413452032
 51
306.8652197672
  0
ARC
  5
242
330
1F
100
AcDbEntity
  8
0
  6
Continuous
 62
     7
370
    25
100
AcDbCircle
 10
-11.65506046
 20
-32.84681318
 30
0.0
 40
14.39999999999732
100
AcDbArc
 50
149.1347802328
 51
156.586547968
  0
ARC
  5
243
330
1F
100
AcDbEntity
  8
0
  6
Continuous
 62
     7
370
    25
100
AcDbCircle
 10
-0.0000000001
 20
-0.0000000001
 30
0.0
 40
34.99899999985934
100
AcDbArc
 50
225.3286312657
 51
226.6713687343
  0
ARC
  5
244
330
1F
100
AcDbEntity
  8
0
  6
Continuous
 62
     7
370
    25
100
AcDbCircle
 10
-13.9179471797
 20
-31.953784075
 30
0.0
 40
14.39999999999782
100
AcDbArc
 50
145.1347802328
 51
152.586547968
  0
ARC
  5
245
330
1F
100
AcDbEntity
  8
0
  6
Continuous
 62
     7
370
    25
100
AcDbCircle
 10
-0.0000000001
 20
-0.0000000001
 30
0.0
 40
34.99899999992191
100
AcDbArc
 50
221.3286312657
 51
222.6713687343
  0
ARC
  5
246
330
1F
100
AcDbEntity
  8
0
  6
Continuous
 62
     7
370
    25
100
AcDbCircle
 10
-33.233559533
 20
-10.5016232638
 30
0.0
 40
14.39999999999914
100
AcDbArc
 50
291.413452032
 51
298.8652197672
  0
ARC
  5
247
330
1F
100
AcDbEntity
  8
0
  6
Continuous
 62
     7
370
    25
100
AcDbCircle
 10
-16.1130270597
 20
-30.905079346
 30
0.0
 40
14.39999999999925
100
AcDbArc
 50
141.1347802328
 51
148.586547968
  0
ARC
  5
248
330
1F
100
AcDbEntity
  8
0
  6
Continuous
 62
     7
370
    25
100
AcDbCircle
 10
0.0
 20
0.0
 30
0.0
 40
34.9989999999699
100
AcDbArc
 50
217.3286312657
 51
218.6713687343
  0
ARC
  5
249
330
1F
100
AcDbEntity
  8
0
  6
Continuous
 62
     7
370
    25
100
AcDbCircle
 10
-33.8851604598
 20
-8.1577859143
 30
0.0
 40
14.39999999999944
100
AcDbArc
 50
287.413452032
 51
294.8652197672
  0
ARC
  5
24A
330
1F
100
AcDbEntity
  8
0
  6
Continuous
 62
     7
370
    25
100
AcDbCircle
 10
-18.2296058916
 20
-29.705808177
 30
0.0
 40
14.39999999999848
100
AcDbArc
 50
137.1347802328
 51
144.586547968
  0
ARC
  5
24B
330
1F
100
AcDbEntity
  8
0
  6
Continuous
 62
     7
370
    25
100
AcDbCircle
 10
0.0
 20
0.0
 30
0.0
 40
34.99899999994258
100
AcDbArc
 50
213.3286312657
 51
214.6713687343
  0
ARC
  5
24C
330
1F
100
AcDbEntity
  8
0
  6
Continuous
 62
     7
370
    25
100
AcDbCircle
 10
-34.3716762909
 20
-5.7742046519
 30
0.0
 40
14.40000000000298
100
AcDbArc
 50
283.413452032
 51
290.8652197672
  0
ARC
  5
24D
330
1F
100
AcDbEntity
  8
0
  6
Continuous
 62
     7
370
    25
100
AcDbCircle
 10
-20.257371916
 20
-28.3618132965
 30
0.0
 40
14.39999999999866
100
AcDbArc
 50
133.1347802328
 51
140.586547968
  0
ARC
  5
24E
330
1F
100
AcDbEntity
  8
0
  6
Continuous
 62
     7
370
    25
100
AcDbCircle
 10
-0.0000000001
 20
-0.0000000001
 30
0.0
 40
34.9989999998952
100
AcDbArc
 50
209.3286312657
 51
210.6713687343
  0
ARC
  5
24F
330
1F
100
AcDbEntity
  8
0
  6
Continuous
 62
     7
370
    25
100
AcDbCircle
 10
-34.6907367702
 20
-3.3624920449
 30
0.0
 40
14.39999999999818
100
AcDbArc
 50
279.413452032
 51
286.8652197672
  0
ARC
  5
250
330
1F
100
AcDbEntity
  8
0
  6
Continuous
 62
     7
370
    25
100
AcDbCircle
 10
-22.1864460607
 20
-26.8796425126
 30
0.0
 40
14.39999999999665
100
AcDbArc
 50
129.1347802328
 51
136.586547968
  0
ARC
  5
251
330
1F
100
AcDbEntity
  8
0
  6
Continuous
 62
     7
370
    25
100
AcDbCircle
 10
-0.0000000001
 20
-0.0000000001
 30
0.0
 40
34.99899999988025
100
AcDbArc
 50
205.3286312657
 51
206.6713687343
  0
ARC
  5
252
330
1F
100
AcDbEntity
  8
0
  6
Continuous
 62
     7
370
    25
100
AcDbCircle
 10
-34.840787467
 20
-0.9343977146
 30
0.0
 40
14.40000000000003
100
AcDbArc
 50
275.413452032
 51
282.8652197672
  0
ARC
  5
253
330
1F
100
AcDbEntity
  8
0
  6
Continuous
 62
     7
370
    25
100
AcDbCircle
 10
-24.0074300703
 20
-25.2665168123
 30
0.0
 40
14.39999999999984
100
AcDbArc
 50
125.1347802328
 51
132.586547968
  0
ARC
  5
254
330
1F
100
AcDbEntity
  8
0
  6
Continuous
 62
     7
370
    25
100
AcDbCircle
 10
0.0
 20
0.0
 30
0.0
 40
34.99899999999402
100
AcDbArc
 50
201.3286312657
 51
202.6713687343
  0
ARC
  5
255
330
1F
100
AcDbEntity
  8
0
  6
Continuous
 62
     7
370
    25
100
AcDbCircle
 10
-34.8210973494
 20
1.4982489074
 30
0.0
 40
14.39999999999901
100
AcDbArc
 50
271.413452032
 51
278.8652197672
  0
ARC
  5
256
330
1F
100
AcDbEntity
  8
0
  6
Continuous
 62
     7
370
    25
100
AcDbCircle
 10
-25.7114522939
 20
-23.5302951819
 30
0.0
 40
14.39999999999843
100
AcDbArc
 50
121.1347802328
 51
128.586547968
  0
ARC
  5
257
330
1F
100
AcDbEntity
  8
0
  6
Continuous
 62
     7
370
    25
100
AcDbCircle
 10
-0.0000000001
 20
0.0
 30
0.0
 40
34.99899999988112
100
AcDbArc
 50
197.3286312657
 51
198.6713687343
  0
ARC
  5
258
330
1F
100
AcDbEntity
  8
0
  6
Continuous
 62
     7
370
    25
100
AcDbCircle
 10
-34.6317623458
 20
3.9235962114
 30
0.0
 40
14.40000000000045
100
AcDbArc
 50
267.413452032
 51
274.8652197672
  0
ARC
  5
259
330
1F
100
AcDbEntity
  8
0
  6
Continuous
 62
     7
370
    25
100
AcDbCircle
 10
-27.2902109064
 20
-21.6794363186
 30
0.0
 40
14.3999999999986
100
AcDbArc
 50
117.1347802328
 51
124.586547968
  0
ARC
  5
25A
330
1F
100
AcDbEntity
  8
0
  6
Continuous
 62
     7
370
    25
100
AcDbCircle
 10
-0.0000000001
 20
0.0
 30
0.0
 40
34.99899999993665
100
AcDbArc
 50
193.3286312657
 51
194.6713687343
  0
ARC
  5
25B
330
1F
100
AcDbEntity
  8
0
  6
Continuous
 62
     7
370
    25
100
AcDbCircle
 10
-34.2737048772
 20
6.329828149
 30
0.0
 40
14.39999999999953
100
AcDbArc
 50
263.413452032
 51
270.8652197672
  0
ARC
  5
25C
330
1F
100
AcDbEntity
  8
0
  6
Continuous
 62
     7
370
    25
100
AcDbCircle
 10
-28.7360143546
 20
-19.7229574207
 30
0.0
 40
14.39999999999837
100
AcDbArc
 50
113.1347802328
 51
120.586547968
  0
ARC
  5
25D
330
1F
100
AcDbEntity
  8
0
  6
Continuous
 62
     7
370
    25
100
AcDbCircle
 10
-0.0000000001
 20
0.0
 30
0.0
 40
34.99899999988813
100
AcDbArc
 50
189.3286312657
 51
190.6713687343
  0
ARC
  5
25E
330
1F
100
AcDbEntity
  8
0
  6
Continuous
 62
     7
370
    25
100
AcDbCircle
 10
-33.7486693637
 20
8.7052218002
 30
0.0
 40
14.39999999999875
100
AcDbArc
 50
259.413452032
 51
266.8652197672
  0
ARC
  5
25F
330
1F
100
AcDbEntity
  8
0
  6
Continuous
 62
     7
370
    25
100
AcDbCircle
 10
-30.0418188294
 20
-17.6703902569
 30
0.0
 40
14.3999999999978
100
AcDbArc
 50
109.1347802328
 51
116.586547968
  0
ARC
  5
260
330
1F
100
AcDbEntity
  8
0
  6
Continuous
 62
     7
370
    25
100
AcDbCircle
 10
-0.0000000001
 20
0.0
 30
0.0
 40
34.99899999989492
100
AcDbArc
 50
185.3286312657
 51
186.6713687343
  0
ARC
  5
261
330
1F
100
AcDbEntity
  8
0
  6
Continuous
 62
     7
370
    25
100
AcDbCircle
 10
-33.0592137254
 20
11.0382044857
 30
0.0
 40
14.40000000000087
100
AcDbArc
 50
255.413452032
 51
262.8652197672
  0
ARC
  5
262
330
1F
100
AcDbEntity
  8
0
  6
Continuous
 62
     7
370
    25
100
AcDbCircle
 10
-31.2012625826
 20
-15.5317347279
 30
0.0
 40
14.39999999999963
100
AcDbArc
 50
105.1347802328
 51
112.586547968
  0
ARC
  5
263
330
1F
100
AcDbEntity
  8
0
  6
Continuous
 62
     7
370
    25
100
AcDbCircle
 10
-0.0000000002
 20
0.0
 30
0.0
 40
34.99899999984275
100
AcDbArc
 50
181.3286312657
 51
182.6713687343
  0
ARC
  5
264
330
1F
100
AcDbEntity
  8
0
  6
Continuous
 62
     7
370
    25
100
AcDbCircle
 10
-32.2086969209
 20
13.3174101486
 30
0.0
 40
14.39999999999992
100
AcDbArc
 50
251.413452032
 51
258.8652197672
  0
ARC
  5
265
330
1F
100
AcDbEntity
  8
0
  6
Continuous
 62
     7
370
    25
100
AcDbCircle
 10
-32.2086969209
 20
-13.3174101486
 30
0.0
 40
14.39999999999941
100
AcDbArc
 50
101.1347802328
 51
108.586547968
  0
ARC
  5
266
330
1F
100
AcDbEntity
  8
0
  6
Continuous
 62
     7
370
    25
100
AcDbCircle
 10
-0.0000000001
 20
0.0
 30
0.0
 40
34.99899999992323
100
AcDbArc
 50
177.3286312657
 51
178.6713687343
  0
ARC
  5
267
330
1F
100
AcDbEntity
  8
0
  6
Continuous
 62
     7
370
    25
100
AcDbCircle
 10
-31.2012625826
 20
15.5317347279
 30
0.0
 40
14.3999999999997
100
AcDbArc
 50
247.413452032
 51
254.8652197672
  0
ARC
  5
268
330
1F
100
AcDbEntity
  8
0
  6
Continuous
 62
     7
370
    25
100
AcDbCircle
 10
-33.0592137254
 20
-11.0382044857
 30
0.0
 40
14.39999999999899
100
AcDbArc
 50
97.1347802328
 51
104.586547968
  0
ARC
  5
269
330
1F
100
AcDbEntity
  8
0
  6
Continuous
 62
     7
370
    25
100
AcDbCircle
 10
-0.0000000002
 20
0.0
 30
0.0
 40
34.99899999984854
100
AcDbArc
 50
173.3286312657
 51
174.6713687343
  0
ARC
  5
26A
330
1F
100
AcDbEntity
  8
0
  6
Continuous
 62
     7
370
    25
100
AcDbCircle
 10
-30.0418188294
 20
17.6703902569
 30
0.0
 40
14.40000000000064
100
AcDbArc
 50
243.413452032
 51
250.8652197672
  0
ARC
  5
26B
330
1F
100
AcDbEntity
  8
0
  6
Continuous
 62
     7
370
    25
100
AcDbCircle
 10
-33.7486693637
 20
-8.7052218002
 30
0.0
 40
14.39999999999897
100
AcDbArc
 50
93.1347802328
 51
100.586547968
  0
ARC
  5
26C
330
1F
100
AcDbEntity
  8
0
  6
Continuous
 62
     7
370
    25
100
AcDbCircle
 10
-0.0000000001
 20
0.0
 30
0.0
 40
34.99899999993685
100
AcDbArc
 50
169.3286312657
 51
170.6713687343
  0
ARC
  5
26D
330
1F
100
AcDbEntity
  8
0
  6
Continuous
 62
     7
370
    25
100
AcDbCircle
 10
-28.7360143546
 20
19.7229574207
 30
0.0
 40
14.40000000000183
100
AcDbArc
 50
239.413452032
 51
246.8652197672
  0
ARC
  5
26E
330
1F
100
AcDbEntity
  8
0
  6
Continuous
 62
     7
370
    25
100
AcDbCircle
 10
-34.2737048772
 20
-6.329828149
 30
0.0
 40
14.39999999999777
100
AcDbArc
 50
89.1347802328
 51
96.586547968
  0
ARC
  5
26F
330
1F
100
AcDbEntity
  8
0
  6
Continuous
 62
     7
370
    25
100
AcDbCircle
 10
-0.0000000001
 20
0.0
 30
0.0
 40
34.99899999989519
100
AcDbArc
 50
165.3286312657
 51
166.6713687343
  0
ARC
  5
270
330
1F
100
AcDbEntity
  8
0
  6
Continuous
 62
     7
370
    25
100
AcDbCircle
 10
-27.2902109064
 20
21.6794363186
 30
0.0
 40
14.39999999999972
100
AcDbArc
 50
235.413452032
 51
242.8652197672
  0
ARC
  5
271
330
1F
100
AcDbEntity
  8
0
  6
Continuous
 62
     7
370
    25
100
AcDbCircle
 10
-34.6317623458
 20
-3.9235962114
 30
0.0
 40
14.39999999999904
100
AcDbArc
 50
85.1347802328
 51
92.586547968
  0
ARC
  5
272
330
1F
100
AcDbEntity
  8
0
  6
Continuous
 62
     7
370
    25
100
AcDbCircle
 10
0.0
 20
0.0
 30
0.0
 40
34.99899999996423
100
AcDbArc
 50
161.3286312657
 51
162.6713687343
  0
ARC
  5
273
330
1F
100
AcDbEntity
  8
0
  6
Continuous
 62
     7
370
    25
100
AcDbCircle
 10
-25.7114522939
 20
23.5302951819
 30
0.0
 40
14.3999999999998
100
AcDbArc
 50
231.413452032
 51
238.8652197672
  0
ARC
  5
274
330
1F
100
AcDbEntity
  8
0
  6
Continuous
 62
     7
370
    25
100
AcDbCircle
 10
-34.8210973494
 20
-1.4982489074
 30
0.0
 40
14.39999999999937
100
AcDbArc
 50
81.1347802328
 51
88.586547968
  0
ARC
  5
275
330
1F
100
AcDbEntity
  8
0
  6
Continuous
 62
     7
370
    25
100
AcDbCircle
 10
0.0
 20
0.0
 30
0.0
 40
34.99899999995409
100
AcDbArc
 50
157.3286312657
 51
158.6713687343
  0
ARC
  5
276
330
1F
100
AcDbEntity
  8
0
  6
Continuous
 62
     7
370
    25
100
AcDbCircle
 10
-24.0074300703
 20
25.2665168123
 30
0.0
 40
14.40000000000116
100
AcDbArc
 50
227.413452032
 51
234.8652197672
  0
ARC
  5
277
330
1F
100
AcDbEntity
  8
0
  6
Continuous
 62
     7
370
    25
100
AcDbCircle
 10
-34.840787467
 20
0.9343977146
 30
0.0
 40
14.39999999999924
100
AcDbArc
 50
77.1347802328
 51
84.586547968
  0
ARC
  5
278
330
1F
100
AcDbEntity
  8
0
  6
Continuous
 62
     7
370
    25
100
AcDbCircle
 10
-0.0000000001
 20
0.0
 30
0.0
 40
34.99899999993261
100
AcDbArc
 50
153.3286312657
 51
154.6713687343
  0
ARC
  5
279
330
1F
100
AcDbEntity
  8
0
  6
Continuous
 62
     7
370
    25
100
AcDbCircle
 10
-22.1864460607
 20
26.8796425126
 30
0.0
 40
14.4000000000011
100
AcDbArc
 50
223.413452032
 51
230.8652197672
  0
ARC
  5
27A
330
1F
100
AcDbEntity
  8
0
  6
Continuous
 62
     7
370
    25
100
AcDbCircle
 10
-34.6907367702
 20
3.3624920449
 30
0.0
 40
14.39999999999864
100
AcDbArc
 50
73.1347802328
 51
80.586547968
  0
ARC
  5
27B
330
1F
100
AcDbEntity
  8
0
  6
Continuous
 62
     7
370
    25
100
AcDbCircle
 10
0.0
 20
0.0
 30
0.0
 40
34.9989999999605
100
AcDbArc
 50
149.3286312657
 51
150.6713687343
  0
ARC
  5
27C
330
1F
100
AcDbEntity
  8
0
  6
Continuous
 62
     7
370
    25
100
AcDbCircle
 10
-20.257371916
 20
28.3618132965
 30
0.0
 40
14.40000000000328
100
AcDbArc
 50
219.413452032
 51
226.8652197672
  0
ARC
  5
27D
330
1F
100
AcDbEntity
  8
0
  6
Continuous
 62
     7
370
    25
100
AcDbCircle
 10
-34.3716762909
 20
5.7742046519
 30
0.0
 40
14.39999999999838
100
AcDbArc
 50
69.1347802328
 51
76.586547968
  0
ARC
  5
27E
330
1F
100
AcDbEntity
  8
0
  6
Continuous
 62
     7
370
    25
100
AcDbCircle
 10
-0.0000000001
 20
0.0
 30
0.0
 40
34.99899999993264
100
AcDbArc
 50
145.3286312657
 51
146.6713687343
  0
ARC
  5
27F
330
1F
100
AcDbEntity
  8
0
  6
Continuous
 62
     7
370
    25
100
AcDbCircle
 10
-18.2296058916
 20
29.705808177
 30
0.0
 40
14.40000000000122
100
AcDbArc
 50
215.413452032
 51
222.8652197672
  0
ARC
  5
280
330
1F
100
AcDbEntity
  8
0
  6
Continuous
 62
     7
370
    25
100
AcDbCircle
 10
-33.8851604598
 20
8.1577859143
 30
0.0
 40
14.39999999999951
100
AcDbArc
 50
65.1347802328
 51
72.586547968
  0
ARC
  5
281
330
1F
100
AcDbEntity
  8
0
  6
Continuous
 62
     7
370
    25
100
AcDbCircle
 10
0.0
 20
0.0
 30
0.0
 40
34.99899999995857
100
AcDbArc
 50
141.3286312657
 51
142.6713687343
  0
ARC
  5
282
330
1F
100
AcDbEntity
  8
0
  6
Continuous
 62
     7
370
    25
100
AcDbCircle
 10
-16.1130270597
 20
30.905079346
 30
0.0
 40
14.39999999999934
100
AcDbArc
 50
211.413452032
 51
218.8652197672
  0
ARC
  5
283
330
1F
100
AcDbEntity
  8
0
  6
Continuous
 62
     7
370
    25
100
AcDbCircle
 10
-33.233559533
 20
10.5016232638
 30
0.0
 40
14.3999999999981
100
AcDbArc
 50
61.1347802328
 51
68.586547968
  0
ARC
  5
284
330
1F
100
AcDbEntity
  8
0
  6
Continuous
 62
     7
370
    25
100
AcDbCircle
 10
0.0
 20
0.0
 30
0.0
 40
34.99899999994068
100
AcDbArc
 50
137.3286312657
 51
138.6713687343
  0
ARC
  5
285
330
1F
100
AcDbEntity
  8
0
  6
Continuous
 62
     7
370
    25
100
AcDbCircle
 10
-13.9179471797
 20
31.953784075
 30
0.0
 40
14.39999999999978
100
AcDbArc
 50
207.413452032
 51
214.8652197672
  0
ARC
  5
286
330
1F
100
AcDbEntity
  8
0
  6
Continuous
 62
     7
370
    25
100
AcDbCircle
 10
-32.4200480448
 20
12.7942977603
 30
0.0
 40
14.40000000000064
100
AcDbArc
 50
57.1347802328
 51
64.586547968
  0
ARC
  5
287
330
1F
100
AcDbEntity
  8
0
  6
Continuous
 62
     7
370
    25
100
AcDbCircle
 10
0.0
 20
0.0
 30
0.0
 40
34.9989999999391
100
AcDbArc
 50
133.3286312657
 51
134.6713687343
  0
ARC
  5
288
330
1F
100
AcDbEntity
  8
0
  6
Continuous
 62
     7
370
    25
100
AcDbCircle
 10
-11.65506046
 20
32.84681318
 30
0.0
 40
14.39999999999877
100
AcDbArc
 50
203.413452032
 51
210.8652197672
  0
ARC
  5
289
330
1F
100
AcDbEntity
  8
0
  6
Continuous
 62
     7
370
    25
100
AcDbCircle
 10
-31.4485893414
 20
15.0246397242
 30
0.0
 40
14.3999999999982
100
AcDbArc
 50
53.1347802328
 51
60.586547968
  0
ARC
  5
28A
330
1F
100
AcDbEntity
  8
0
  6
Continuous
 62
     7
370
    25
100
AcDbCircle
 10
-0.0000000001
 20
0.0000000002
 30
0.0
 40
34.99899999979958
100
AcDbArc
 50
129.3286312657
 51
130.6713687343
  0
ARC
  5
28B
330
1F
100
AcDbEntity
  8
0
  6
Continuous
 62
     7
370
    25
100
AcDbCircle
 10
-9.3353914573
 20
33.5798159129
 30
0.0
 40
14.3999999999983
100
AcDbArc
 50
199.413452032
 51
206.8652197672
  0
ARC
  5
28C
330
1F
100
AcDbEntity
  8
0
  6
Continuous
 62
     7
370
    25
100
AcDbCircle
 10
-30.3239162719
 20
17.1817831537
 30
0.0
 40
14.39999999999823
100
AcDbArc
 50
49.1347802328
 51
56.586547968
  0
ARC
  5
28D
330
1F
100
AcDbEntity
  8
0
  6
Continuous
 62
     7
370
    25
100
AcDbCircle
 10
-0.0000000001
 20
0.0000000001
 30
0.0
 40
34.99899999987678
100
AcDbArc
 50
125.3286312657
 51
126.6713687343
  0
ARC
  5
28E
330
1F
100
AcDbEntity
  8
0
  6
Continuous
 62
     7
370
    25
100
AcDbCircle
 10
-6.9702413659
 20
34.1492211582
 30
0.0
 40
14.40000000000074
100
AcDbArc
 50
195.413452032
 51
202.8652197672
  0
ARC
  5
28F
330
1F
100
AcDbEntity
  8
0
  6
Continuous
 62
     7
370
    25
100
AcDbCircle
 10
-29.0515081305
 20
19.2552186627
 30
0.0
 40
14.39999999999999
100
AcDbArc
 50
45.1347802328
 51
52.586547968
  0
ARC
  5
290
330
1F
100
AcDbEntity
  8
0
  6
Continuous
 62
     7
370
    25
100
AcDbCircle
 10
0.0
 20
0.0000000001
 30
0.0
 40
34.99899999992721
100
AcDbArc
 50
121.3286312657
 51
122.6713687343
  0
ARC
  5
291
330
1F
100
AcDbEntity
  8
0
  6
Continuous
 62
     7
370
    25
100
AcDbCircle
 10
-4.5711329591
 20
34.5522548306
 30
0.0
 40
14.39999999999993
100
AcDbArc
 50
191.413452032
 51
198.8652197672
  0
ARC
  5
292
330
1F
100
AcDbEntity
  8
0
  6
Continuous
 62
     7
370
    25
100
AcDbCircle
 10
-27.6375639618
 20
21.234844682
 30
0.0
 40
14.39999999999982
100
AcDbArc
 50
41.1347802328
 51
48.586547968
  0
ARC
  5
293
330
1F
100
AcDbEntity
  8
0
  6
Continuous
 62
     7
370
    25
100
AcDbCircle
 10
0.0
 20
0.0000000001
 30
0.0
 40
34.99899999990192
100
AcDbArc
 50
117.3286312657
 51
118.6713687343
  0
ARC
  5
294
330
1F
100
AcDbEntity
  8
0
  6
Continuous
 62
     7
370
    25
100
AcDbCircle
 10
-2.1497544521
 20
34.7869533907
 30
0.0
 40
14.40000000000086
100
AcDbArc
 50
187.413452032
 51
194.8652197672
  0
ARC
  5
295
330
1F
100
AcDbEntity
  8
0
  6
Continuous
 62
     7
370
    25
100
AcDbCircle
 10
-26.0889723595
 20
23.1110166724
 30
0.0
 40
14.3999999999997
100
AcDbArc
 50
37.1347802328
 51
44.586547968
  0
ARC
  5
296
330
1F
100
AcDbEntity
  8
0
  6
Continuous
 62
     7
370
    25
100
AcDbCircle
 10
-0.0000000001
 20
0.0000000001
 30
0.0
 40
34.99899999984095
100
AcDbArc
 50
113.3286312657
 51
114.6713687343
  0
ARC
  5
297
330
1F
100
AcDbEntity
  8
0
  6
Continuous
 62
     7
370
    25
100
AcDbCircle
 10
0.2820974426
 20
34.8521734106
 30
0.0
 40
14.39999999999837
100
AcDbArc
 50
183.413452032
 51
190.8652197672
  0
ARC
  5
298
330
1F
100
AcDbEntity
  8
0
  6
Continuous
 62
     7
370
    25
100
AcDbCircle
 10
-24.4132779063
 20
24.8745941128
 30
0.0
 40
14.39999999999748
100
AcDbArc
 50
33.1347802328
 51
40.586547968
  0
ARC
  5
299
330
1F
100
AcDbEntity
  8
0
  6
Continuous
 62
     7
370
    25
100
AcDbCircle
 10
-0.0000000001
 20
0.0000000001
 30
0.0
 40
34.99899999984901
100
AcDbArc
 50
109.3286312657
 51
110.6713687343
  0
ARC
  5
29A
330
1F
100
AcDbEntity
  8
0
  6
Continuous
 62
     7
370
    25
100
AcDbCircle
 10
2.7125749868
 20
34.747597145
 30
0.0
 40
14.39999999999983
100
AcDbArc
 50
179.413452032
 51
186.8652197672
  0
ARC
  5
29B
330
1F
100
AcDbEntity
  8
0
  6
Continuous
 62
     7
370
    25
100
AcDbCircle
 10
-22.6186444173
 20
26.516985031
 30
0.0
 40
14.39999999999938
100
AcDbArc
 50
29.1347802328
 51
36.586547968
  0
ARC
  5
29C
330
1F
100
AcDbEntity
  8
0
  6
Continuous
 62
     7
370
    25
100
AcDbCircle
 10
0.0
 20
0.0
 30
0.0
 40
34.99899999997196
100
AcDbArc
 50
105.3286312657
 51
106.6713687343
  0
ARC
  5
29D
330
1F
100
AcDbEntity
  8
0
  6
Continuous
 62
     7
370
    25
100
AcDbCircle
 10
5.1298371384
 20
34.4737340789
 30
0.0
 40
14.3999999999997
100
AcDbArc
 50
175.413452032
 51
182.8652197672
  0
ARC
  5
29E
330
1F
100
AcDbEntity
  8
0
  6
Continuous
 62
     7
370
    25
100
AcDbCircle
 10
-20.7138151662
 20
28.0301878636
 30
0.0
 40
14.40000000000027
100
AcDbArc
 50
25.1347802328
 51
32.586547968
  0
ARC
  5
29F
330
1F
100
AcDbEntity
  8
0
  6
Continuous
 62
     7
370
    25
100
AcDbCircle
 10
0.0
 20
0.0
 30
0.0
 40
34.99900000001191
100
AcDbArc
 50
101.3286312657
 51
102.6713687343
  0
ARC
  5
2A0
330
1F
100
AcDbEntity
  8
0
  6
Continuous
 62
     7
370
    25
100
AcDbCircle
 10
7.5221072391
 20
34.0319184457
 30
0.0
 40
14.39999999999979
100
AcDbArc
 50
171.413452032
 51
178.8652197672
  0
ARC
  5
2A1
330
1F
100
AcDbEntity
  8
0
  6
Continuous
 62
     7
370
    25
100
AcDbCircle
 10
-18.7080702897
 20
29.4068304386
 30
0.0
 40
14.39999999999803
100
AcDbArc
 50
21.1347802328
 51
28.586547968
  0
ARC
  5
2A2
330
1F
100
AcDbEntity
  8
0
  6
Continuous
 62
     7
370
    25
100
AcDbCircle
 10
0.0
 20
0.0000000001
 30
0.0
 40
34.99899999990387
100
AcDbArc
 50
97.3286312657
 51
98.6713687343
  0
ARC
  5
2A3
330
1F
100
AcDbEntity
  8
0
  6
Continuous
 62
     7
370
    25
100
AcDbCircle
 10
9.8777303894
 20
33.4243027266
 30
0.0
 40
14.40000000000025
100
AcDbArc
 50
167.413452032
 51
174.8652197672
  0
ARC
  5
2A4
330
1F
100
AcDbEntity
  8
0
  6
Continuous
 62
     7
370
    25
100
AcDbCircle
 10
-16.6111815754
 20
30.6402058916
 30
0.0
 40
14.39999999999926
100
AcDbArc
 50
17.1347802328
 51
24.586547968
  0
ARC
  5
2A5
330
1F
100
AcDbEntity
  8
0
  6
Continuous
 62
     7
370
    25
100
AcDbCircle
 10
0.0
 20
0.0000000001
 30
0.0
 40
34.99899999986754
100
AcDbArc
 50
93.3286312657
 51
94.6713687343
  0
ARC
  5
2A6
330
1F
100
AcDbEntity
  8
0
  6
Continuous
 62
     7
370
    25
100
AcDbCircle
 10
12.1852302302
 20
32.6538471645
 30
0.0
 40
14.39999999999973
100
AcDbArc
 50
163.413452032
 51
170.8652197672
  0
ARC
  5
2A7
330
1F
100
AcDbEntity
  8
0
  6
Continuous
 62
     7
370
    25
100
AcDbCircle
 10
-14.4333648542
 20
31.7243053414
 30
0.0
 40
14.39999999999823
100
AcDbArc
 50
13.1347802328
 51
20.586547968
  0
ARC
  5
2A8
330
1F
100
AcDbEntity
  8
0
  6
Continuous
 62
     7
370
    25
100
AcDbCircle
 10
0.0
 20
0.0
 30
0.0
 40
34.99899999995889
100
AcDbArc
 50
89.3286312657
 51
90.6713687343
  0
ARC
  5
2A9
330
1F
100
AcDbEntity
  8
0
  6
Continuous
 62
     7
370
    25
100
AcDbCircle
 10
14.4333648542
 20
31.7243053414
 30
0.0
 40
14.39999999999912
100
AcDbArc
 50
159.413452032
 51
166.8652197672
  0
ARC
  5
2AA
330
1F
100
AcDbEntity
  8
0
  6
Continuous
 62
     7
370
    25
100
AcDbCircle
 10
0.0
 20
-0.0000000001
 30
0.0
 40
36.800000000084
100
AcDbArc
 50
87.4838126344
 51
88.5161873656
  0
ARC
  5
2AB
330
1F
100
AcDbEntity
  8
0
  6
Continuous
 62
     7
370
    25
100
AcDbCircle
 10
-12.1852302302
 20
32.6538471645
 30
0.0
 40
14.39999999999893
100
AcDbArc
 50
9.1347802328
 51
16.586547968
  0
ARC
  5
2AC
330
1F
100
AcDbEntity
  8
0
  6
Continuous
 62
     7
370
    25
100
AcDbCircle
 10
0.0
 20
0.0000000001
 30
0.0
 40
34.99899999993089
100
AcDbArc
 50
85.3286312657
 51
86.6713687343
  0
ARC
  5
2AD
330
1F
100
AcDbEntity
  8
0
  6
Continuous
 62
     7
370
    25
100
AcDbCircle
 10
16.6111815754
 20
30.6402058916
 30
0.0
 40
14.39999999999976
100
AcDbArc
 50
155.413452032
 51
162.8652197672
  0
ARC
  5
2AE
330
1F
100
AcDbEntity
  8
0
  6
Continuous
 62
     7
370
    25
100
AcDbCircle
 10
-9.8777303894
 20
33.4243027266
 30
0.0
 40
14.3999999999994
100
AcDbArc
 50
5.1347802328
 51
12.586547968
  0
ARC
  5
2AF
330
1F
100
AcDbEntity
  8
0
  6
Continuous
 62
     7
370
    25
100
AcDbCircle
 10
0.0
 20
0.0
 30
0.0
 40
34.99899999997844
100
AcDbArc
 50
81.3286312657
 51
82.6713687343
  0
ARC
  5
2B0
330
1F
100
AcDbEntity
  8
0
  6
Continuous
 62
     7
370
    25
100
AcDbCircle
 10
18.7080702898
 20
29.4068304386
 30
0.0
 40
14.39999999999839
100
AcDbArc
 50
151.413452032
 51
158.8652197672
  0
ARC
  5
2B1
330
1F
100
AcDbEntity
  8
0
  6
Continuous
 62
     7
370
    25
100
AcDbCircle
 10
-7.5221072391
 20
34.0319184457
 30
0.0
 40
14.39999999999974
100
AcDbArc
 50
1.1347802328
 51
8.586547968
  0
ARC
  5
2B2
330
1F
100
AcDbEntity
  8
0
  6
Continuous
 62
     7
370
    25
100
AcDbCircle
 10
0.0
 20
0.0000000002
 30
0.0
 40
34.99899999982103
100
AcDbArc
 50
77.3286312657
 51
78.6713687343
  0
ARC
  5
2B3
330
1F
100
AcDbEntity
  8
0
  6
Continuous
 62
     7
370
    25
100
AcDbCircle
 10
20.7138151662
 20
28.0301878636
 30
0.0
 40
14.39999999999883
100
AcDbArc
 50
147.413452032
 51
154.8652197672
  0
ARC
  5
2B4
330
1F
100
AcDbEntity
  8
0
  6
Continuous
 62
     7
370
    25
100
AcDbCircle
 10
-5.1298371384
 20
34.4737340789
 30
0.0
 40
14.39999999999857
100
AcDbArc
 50
357.1347802328
 51
4.586547968
  0
ARC
  5
2B5
330
1F
100
AcDbEntity
  8
0
  6
Continuous
 62
     7
370
    25
100
AcDbCircle
 10
0.0
 20
0.0000000001
 30
0.0
 40
34.99899999987102
100
AcDbArc
 50
73.3286312657
 51
74.6713687343
  0
ARC
  5
2B6
330
1F
100
AcDbEntity
  8
0
  6
Continuous
 62
     7
370
    25
100
AcDbCircle
 10
22.6186444173
 20
26.516985031
 30
0.0
 40
14.39999999999786
100
AcDbArc
 50
143.413452032
 51
150.8652197672
  0
ARC
  5
2B7
330
1F
100
AcDbEntity
  8
0
  6
Continuous
 62
     7
370
    25
100
AcDbCircle
 10
-2.7125749868
 20
34.747597145
 30
0.0
 40
14.39999999999946
100
AcDbArc
 50
353.1347802328
 51
0.586547968
  0
ARC
  5
2B8
330
1F
100
AcDbEntity
  8
0
  6
Continuous
 62
     7
370
    25
100
AcDbCircle
 10
0.0
 20
0.0000000001
 30
0.0
 40
34.99899999991346
100
AcDbArc
 50
69.3286312657
 51
70.6713687343
  0
ARC
  5
2B9
330
1F
100
AcDbEntity
  8
0
  6
Continuous
 62
     7
370
    25
100
AcDbCircle
 10
24.4132779064
 20
24.8745941128
 30
0.0
 40
14.40000000000284
100
AcDbArc
 50
139.413452032
 51
146.8652197672
  0
ARC
  5
2BA
330
1F
100
AcDbEntity
  8
0
  6
Continuous
 62
     7
370
    25
100
AcDbCircle
 10
-0.2820974426
 20
34.8521734106
 30
0.0
 40
14.39999999999849
100
AcDbArc
 50
349.1347802328
 51
356.586547968
  0
ARC
  5
2BB
330
1F
100
AcDbEntity
  8
0
  6
Continuous
 62
     7
370
    25
100
AcDbCircle
 10
0.0000000001
 20
0.0000000001
 30
0.0
 40
34.99899999984659
100
AcDbArc
 50
65.3286312657
 51
66.6713687343
  0
ARC
  5
2BC
330
1F
100
AcDbEntity
  8
0
  6
Continuous
 62
     7
370
    25
100
AcDbCircle
 10
26.0889723595
 20
23.1110166724
 30
0.0
 40
14.39999999999966
100
AcDbArc
 50
135.413452032
 51
142.8652197672
  0
ARC
  5
2BD
330
1F
100
AcDbEntity
  8
0
  6
Continuous
 62
     7
370
    25
100
AcDbCircle
 10
2.1497544521
 20
34.7869533907
 30
0.0
 40
14.40000000000001
100
AcDbArc
 50
345.1347802328
 51
352.586547968
  0
ARC
  5
2BE
330
1F
100
AcDbEntity
  8
0
  6
Continuous
 62
     7
370
    25
100
AcDbCircle
 10
0.0
 20
0.0000000001
 30
0.0
 40
34.99899999989506
100
AcDbArc
 50
61.3286312657
 51
62.6713687343
  0
ARC
  5
2BF
330
1F
100
AcDbEntity
  8
0
  6
Continuous
 62
     7
370
    25
100
AcDbCircle
 10
27.6375639618
 20
21.234844682
 30
0.0
 40
14.39999999999893
100
AcDbArc
 50
131.413452032
 51
138.8652197672
  0
ARC
  5
2C0
330
1F
100
AcDbEntity
  8
0
  6
Continuous
 62
     7
370
    25
100
AcDbCircle
 10
4.5711329591
 20
34.5522548306
 30
0.0
 40
14.40000000000033
100
AcDbArc
 50
341.1347802328
 51
348.586547968
  0
ARC
  5
2C1
330
1F
100
AcDbEntity
  8
0
  6
Continuous
 62
     7
370
    25
100
AcDbCircle
 10
0.0
 20
0.0000000001
 30
0.0
 40
34.99899999993639
100
AcDbArc
 50
57.3286312657
 51
58.6713687343
  0
ARC
  5
2C2
330
1F
100
AcDbEntity
  8
0
  6
Continuous
 62
     7
370
    25
100
AcDbCircle
 10
29.0515081305
 20
19.2552186627
 30
0.0
 40
14.39999999999893
100
AcDbArc
 50
127.413452032
 51
134.8652197672
  0
ARC
  5
2C3
330
1F
100
AcDbEntity
  8
0
  6
Continuous
 62
     7
370
    25
100
AcDbCircle
 10
6.9702413659
 20
34.1492211582
 30
0.0
 40
14.39999999999905
100
AcDbArc
 50
337.1347802328
 51
344.586547968
  0
ARC
  5
2C4
330
1F
100
AcDbEntity
  8
0
  6
Continuous
 62
     7
370
    25
100
AcDbCircle
 10
0.0000000001
 20
0.0000000001
 30
0.0
 40
34.9989999998735
100
AcDbArc
 50
53.3286312657
 51
54.6713687343
  0
ARC
  5
2C5
330
1F
100
AcDbEntity
  8
0
  6
Continuous
 62
     7
370
    25
100
AcDbCircle
 10
30.3239162719
 20
17.1817831537
 30
0.0
 40
14.39999999999969
100
AcDbArc
 50
123.413452032
 51
130.8652197672
  0
ARC
  5
2C6
330
1F
100
AcDbEntity
  8
0
  6
Continuous
 62
     7
370
    25
100
AcDbCircle
 10
9.3353914573
 20
33.5798159129
 30
0.0
 40
14.39999999999858
100
AcDbArc
 50
333.1347802328
 51
340.586547968
  0
ARC
  5
2C7
330
1F
100
AcDbEntity
  8
0
  6
Continuous
 62
     7
370
    25
100
AcDbCircle
 10
0.0000000001
 20
0.0000000001
 30
0.0
 40
34.99899999986015
100
AcDbArc
 50
49.3286312657
 51
50.6713687343
  0
ARC
  5
2C8
330
1F
100
AcDbEntity
  8
0
  6
Continuous
 62
     7
370
    25
100
AcDbCircle
 10
31.4485893414
 20
15.0246397242
 30
0.0
 40
14.39999999999856
100
AcDbArc
 50
119.413452032
 51
126.8652197672
  0
ARC
  5
2C9
330
1F
100
AcDbEntity
  8
0
  6
Continuous
 62
     7
370
    25
100
AcDbCircle
 10
11.65506046
 20
32.84681318
 30
0.0
 40
14.39999999999992
100
AcDbArc
 50
329.1347802328
 51
336.586547968
  0
ARC
  5
2CA
330
1F
100
AcDbEntity
  8
0
  6
Continuous
 62
     7
370
    25
100
AcDbCircle
 10
0.0
 20
0.0000000001
 30
0.0
 40
34.99899999993006
100
AcDbArc
 50
45.3286312657
 51
46.6713687343
  0
ARC
  5
2CB
330
1F
100
AcDbEntity
  8
0
  6
Continuous
 62
     7
370
    25
100
AcDbCircle
 10
32.4200480448
 20
12.7942977603
 30
0.0
 40
14.39999999999946
100
AcDbArc
 50
115.413452032
 51
122.8652197672
  0
ARC
  5
2CC
330
1F
100
AcDbEntity
  8
0
  6
Continuous
 62
     7
370
    25
100
AcDbCircle
 10
13.9179471797
 20
31.953784075
 30
0.0
 40
14.39999999999925
100
AcDbArc
 50
325.1347802328
 51
332.586547968
  0
ARC
  5
2CD
330
1F
100
AcDbEntity
  8
0
  6
Continuous
 62
     7
370
    25
100
AcDbCircle
 10
0.0000000001
 20
0.0000000001
 30
0.0
 40
34.99899999990974
100
AcDbArc
 50
41.3286312657
 51
42.6713687343
  0
ARC
  5
2CE
330
1F
100
AcDbEntity
  8
0
  6
Continuous
 62
     7
370
    25
100
AcDbCircle
 10
33.233559533
 20
10.5016232638
 30
0.0
 40
14.39999999999817
100
AcDbArc
 50
111.413452032
 51
118.8652197672
  0
ARC
  5
2CF
330
1F
100
AcDbEntity
  8
0
  6
Continuous
 62
     7
370
    25
100
AcDbCircle
 10
16.1130270597
 20
30.905079346
 30
0.0
 40
14.39999999999825
100
AcDbArc
 50
321.1347802328
 51
328.586547968
  0
ARC
  5
2D0
330
1F
100
AcDbEntity
  8
0
  6
Continuous
 62
     7
370
    25
100
AcDbCircle
 10
0.0000000001
 20
0.0
 30
0.0
 40
34.99899999992548
100
AcDbArc
 50
37.3286312657
 51
38.6713687343
  0
ARC
  5
2D1
330
1F
100
AcDbEntity
  8
0
  6
Continuous
 62
     7
370
    25
100
AcDbCircle
 10
33.8851604598
 20
8.1577859143
 30
0.0
 40
14.4000000000002
100
AcDbArc
 50
107.413452032
 51
114.8652197672
  0
ARC
  5
2D2
330
1F
100
AcDbEntity
  8
0
  6
Continuous
 62
     7
370
    25
100
AcDbCircle
 10
18.2296058916
 20
29.705808177
 30
0.0
 40
14.40000000000038
100
AcDbArc
 50
317.1347802328
 51
324.586547968
  0
ARC
  5
2D3
330
1F
100
AcDbEntity
  8
0
  6
Continuous
 62
     7
370
    25
100
AcDbCircle
 10
0.0000000001
 20
0.0
 30
0.0
 40
34.99899999992728
100
AcDbArc
 50
33.3286312657
 51
34.6713687343
  0
ARC
  5
2D4
330
1F
100
AcDbEntity
  8
0
  6
Continuous
 62
     7
370
    25
100
AcDbCircle
 10
34.3716762909
 20
5.7742046519
 30
0.0
 40
14.39999999999714
100
AcDbArc
 50
103.413452032
 51
110.8652197672
  0
ARC
  5
2D5
330
1F
100
AcDbEntity
  8
0
  6
Continuous
 62
     7
370
    25
100
AcDbCircle
 10
20.257371916
 20
28.3618132965
 30
0.0
 40
14.39999999999886
100
AcDbArc
 50
313.1347802328
 51
320.586547968
  0
ARC
  5
2D6
330
1F
100
AcDbEntity
  8
0
  6
Continuous
 62
     7
370
    25
100
AcDbCircle
 10
0.0000000001
 20
0.0
 30
0.0
 40
34.99899999992703
100
AcDbArc
 50
29.3286312657
 51
30.6713687343
  0
ARC
  5
2D7
330
1F
100
AcDbEntity
  8
0
  6
Continuous
 62
     7
370
    25
100
AcDbCircle
 10
34.6907367702
 20
3.3624920449
 30
0.0
 40
14.40000000000087
100
AcDbArc
 50
99.413452032
 51
106.8652197672
  0
ARC
  5
2D8
330
1F
100
AcDbEntity
  8
0
  6
Continuous
 62
     7
370
    25
100
AcDbCircle
 10
22.1864460607
 20
26.8796425126
 30
0.0
 40
14.39999999999837
100
AcDbArc
 50
309.1347802328
 51
316.586547968
  0
ARC
  5
2D9
330
1F
100
AcDbEntity
  8
0
  6
Continuous
 62
     7
370
    25
100
AcDbCircle
 10
0.0000000002
 20
0.0000000001
 30
0.0
 40
34.99899999976162
100
AcDbArc
 50
25.3286312657
 51
26.6713687343
  0
ARC
  5
2DA
330
1F
100
AcDbEntity
  8
0
  6
Continuous
 62
     7
370
    25
100
AcDbCircle
 10
34.840787467
 20
0.9343977146
 30
0.0
 40
14.39999999999932
100
AcDbArc
 50
95.413452032
 51
102.8652197672
  0
ARC
  5
2DB
330
1F
100
AcDbEntity
  8
0
  6
Continuous
 62
     7
370
    25
100
AcDbCircle
 10
24.0074300703
 20
25.2665168123
 30
0.0
 40
14.399999999997
100
AcDbArc
 50
305.1347802328
 51
312.586547968
  0
ARC
  5
2DC
330
1F
100
AcDbEntity
  8
0
  6
Continuous
 62
     7
370
    25
100
AcDbCircle
 10
0.0000000002
 20
0.0000000001
 30
0.0
 40
34.99899999982874
100
AcDbArc
 50
21.3286312657
 51
22.6713687343
  0
ARC
  5
2DD
330
1F
100
AcDbEntity
  8
0
  6
Continuous
 62
     7
370
    25
100
AcDbCircle
 10
34.8210973494
 20
-1.4982489074
 30
0.0
 40
14.39999999999828
100
AcDbArc
 50
91.413452032
 51
98.8652197672
  0
ARC
  5
2DE
330
1F
100
AcDbEntity
  8
0
  6
Continuous
 62
     7
370
    25
100
AcDbCircle
 10
25.7114522939
 20
23.5302951819
 30
0.0
 40
14.39999999999958
100
AcDbArc
 50
301.1347802328
 51
308.586547968
  0
ARC
  5
2DF
330
1F
100
AcDbEntity
  8
0
  6
Continuous
 62
     7
370
    25
100
AcDbCircle
 10
0.0000000001
 20
0.0
 30
0.0
 40
34.99899999985271
100
AcDbArc
 50
17.3286312657
 51
18.6713687343
  0
ARC
  5
2E0
330
1F
100
AcDbEntity
  8
0
  6
Continuous
 62
     7
370
    25
100
AcDbCircle
 10
34.6317623458
 20
-3.9235962114
 30
0.0
 40
14.39999999999972
100
AcDbArc
 50
87.413452032
 51
94.8652197672
  0
ARC
  5
2E1
330
1F
100
AcDbEntity
  8
0
  6
Continuous
 62
     7
370
    25
100
AcDbCircle
 10
27.2902109064
 20
21.6794363186
 30
0.0
 40
14.3999999999994
100
AcDbArc
 50
297.1347802328
 51
304.586547968
  0
ARC
  5
2E2
330
1F
100
AcDbEntity
  8
0
  6
Continuous
 62
     7
370
    25
100
AcDbCircle
 10
0.0000000002
 20
0.0000000001
 30
0.0
 40
34.99899999976154
100
AcDbArc
 50
13.3286312657
 51
14.6713687343
  0
ARC
  5
2E3
330
1F
100
AcDbEntity
  8
0
  6
Continuous
 62
     7
370
    25
100
AcDbCircle
 10
34.2737048772
 20
-6.329828149
 30
0.0
 40
14.4000000000007
100
AcDbArc
 50
83.413452032
 51
90.8652197672
  0
ARC
  5
2E4
330
1F
100
AcDbEntity
  8
0
  6
Continuous
 62
     7
370
    25
100
AcDbCircle
 10
28.7360143546
 20
19.7229574207
 30
0.0
 40
14.39999999999924
100
AcDbArc
 50
293.1347802328
 51
300.586547968
  0
ARC
  5
2E5
330
1F
100
AcDbEntity
  8
0
  6
Continuous
 62
     7
370
    25
100
AcDbCircle
 10
0.0000000001
 20
0.0
 30
0.0
 40
34.99899999986287
100
AcDbArc
 50
9.3286312657
 51
10.6713687343
  0
ARC
  5
2E6
330
1F
100
AcDbEntity
  8
0
  6
Continuous
 62
     7
370
    25
100
AcDbCircle
 10
33.7486693637
 20
-8.7052218002
 30
0.0
 40
14.39999999999984
100
AcDbArc
 50
79.413452032
 51
86.8652197672
  0
ARC
  5
2E7
330
1F
100
AcDbEntity
  8
0
  6
Continuous
 62
     7
370
    25
100
AcDbCircle
 10
30.0418188294
 20
17.6703902569
 30
0.0
 40
14.39999999999823
100
AcDbArc
 50
289.1347802328
 51
296.586547968
  0
ARC
  5
2E8
330
1F
100
AcDbEntity
  8
0
  6
Continuous
 62
     7
370
    25
100
AcDbCircle
 10
0.0000000002
 20
0.0
 30
0.0
 40
34.99899999984878
100
AcDbArc
 50
5.3286312657
 51
6.6713687343
  0
ARC
  5
2E9
330
1F
100
AcDbEntity
  8
0
  6
Continuous
 62
     7
370
    25
100
AcDbCircle
 10
33.0592137254
 20
-11.0382044857
 30
0.0
 40
14.39999999999943
100
AcDbArc
 50
75.413452032
 51
82.8652197672
  0
ARC
  5
2EA
330
1F
100
AcDbEntity
  8
0
  6
Continuous
 62
     7
370
    25
100
AcDbCircle
 10
31.2012625826
 20
15.5317347279
 30
0.0
 40
14.39999999999904
100
AcDbArc
 50
285.1347802328
 51
292.586547968
  0
ARC
  5
2EB
330
1F
100
AcDbEntity
  8
0
  6
Continuous
 62
     7
370
    25
100
AcDbCircle
 10
0.0000000001
 20
0.0
 30
0.0
 40
34.99899999987739
100
AcDbArc
 50
1.3286312657
 51
2.6713687343
  0
ARC
  5
2EC
330
1F
100
AcDbEntity
  8
0
  6
Continuous
 62
     7
370
    25
100
AcDbCircle
 10
32.2086969209
 20
-13.3174101486
 30
0.0
 40
14.39999999999976
100
AcDbArc
 50
71.413452032
 51
78.8652197672
  0
ARC
  5
2ED
330
1F
100
AcDbEntity
  8
0
  6
Continuous
 62
     7
370
    25
100
AcDbCircle
 10
32.2086969209
 20
13.3174101486
 30
0.0
 40
14.3999999999988
100
AcDbArc
 50
281.1347802328
 51
288.586547968
  0
ARC
  5
2EE
330
1F
100
AcDbEntity
  8
0
  6
Continuous
 62
     7
370
    25
100
AcDbCircle
 10
0.0000000001
 20
0.0
 30
0.0
 40
36.80000000011151
100
AcDbArc
 50
175.4838126344
 51
176.5161873656
  0
ARC
  5
2EF
330
1F
100
AcDbEntity
  8
0
  6
Continuous
 62
     7
370
    25
100
AcDbCircle
 10
0.0000000001
 20
0.0
 30
0.0
 40
36.80000000007799
100
AcDbArc
 50
171.4838126344
 51
172.5161873656
  0
ARC
  5
2F0
330
1F
100
AcDbEntity
  8
0
  6
Continuous
 62
     7
370
    25
100
AcDbCircle
 10
-0.0000000002
 20
0.0
 30
0.0
 40
36.7999999997941
100
AcDbArc
 50
167.4838126344
 51
168.5161873656
  0
ARC
  5
2F1
330
1F
100
AcDbEntity
  8
0
  6
Continuous
 62
     7
370
    25
100
AcDbCircle
 10
0.0000000002
 20
-0.0000000001
 30
0.0
 40
36.80000000021104
100
AcDbArc
 50
163.4838126344
 51
164.5161873656
  0
ARC
  5
2F2
330
1F
100
AcDbEntity
  8
0
  6
Continuous
 62
     7
370
    25
100
AcDbCircle
 10
0.0
 20
0.0
 30
0.0
 40
36.79999999993741
100
AcDbArc
 50
139.4838126344
 51
140.5161873656
  0
ARC
  5
2F3
330
1F
100
AcDbEntity
  8
0
  6
Continuous
 62
     7
370
    25
100
AcDbCircle
 10
0.0000000001
 20
0.0
 30
0.0
 40
36.8000000000826
100
AcDbArc
 50
143.4838126344
 51
144.5161873656
  0
ARC
  5
2F4
330
1F
100
AcDbEntity
  8
0
  6
Continuous
 62
     7
370
    25
100
AcDbCircle
 10
0.0000000001
 20
-0.0000000001
 30
0.0
 40
36.80000000016523
100
AcDbArc
 50
147.4838126344
 51
148.5161873656
  0
ARC
  5
2F5
330
1F
100
AcDbEntity
  8
0
  6
Continuous
 62
     7
370
    25
100
AcDbCircle
 10
0.0
 20
0.0
 30
0.0
 40
36.79999999997679
100
AcDbArc
 50
151.4838126344
 51
152.5161873656
  0
ARC
  5
2F6
330
1F
100
AcDbEntity
  8
0
  6
Continuous
 62
     7
370
    25
100
AcDbCircle
 10
0.0000000001
 20
0.0
 30
0.0
 40
36.80000000011404
100
AcDbArc
 50
155.4838126344
 51
156.5161873656
  0
ARC
  5
2F7
330
1F
100
AcDbEntity
  8
0
  6
Continuous
 62
     7
370
    25
100
AcDbCircle
 10
0.0000000001
 20
-0.0000000001
 30
0.0
 40
36.80000000014731
100
AcDbArc
 50
159.4838126344
 51
160.5161873656
  0
ARC
  5
2F8
330
1F
100
AcDbEntity
  8
0
  6
Continuous
 62
     7
370
    25
100
AcDbCircle
 10
0.0000000001
 20
-0.0000000001
 30
0.0
 40
36.80000000013277
100
AcDbArc
 50
123.4838126344
 51
124.5161873656
  0
ARC
  5
2F9
330
1F
100
AcDbEntity
  8
0
  6
Continuous
 62
     7
370
    25
100
AcDbCircle
 10
0.0
 20
0.0
 30
0.0
 40
36.80000000000057
100
AcDbArc
 50
119.4838126344
 51
120.5161873656
  0
ARC
  5
2FA
330
1F
100
AcDbEntity
  8
0
  6
Continuous
 62
     7
370
    25
100
AcDbCircle
 10
0.0
 20
0.0
 30
0.0
 40
36.79999999998979
100
AcDbArc
 50
135.4838126344
 51
136.5161873656
  0
ARC
  5
2FB
330
1F
100
AcDbEntity
  8
0
  6
Continuous
 62
     7
370
    25
100
AcDbCircle
 10
0.0000000001
 20
-0.0000000001
 30
0.0
 40
36.80000000014957
100
AcDbArc
 50
127.4838126344
 51
128.5161873656
  0
ARC
  5
2FC
330
1F
100
AcDbEntity
  8
0
  6
Continuous
 62
     7
370
    25
100
AcDbCircle
 10
0.0
 20
0.0000000001
 30
0.0
 40
36.79999999993152
100
AcDbArc
 50
131.4838126344
 51
132.5161873656
  0
ARC
  5
2FD
330
1F
100
AcDbEntity
  8
0
  6
Continuous
 62
     7
370
    25
100
AcDbCircle
 10
0.0
 20
0.0000000001
 30
0.0
 40
36.79999999992037
100
AcDbArc
 50
115.4838126344
 51
116.5161873656
  0
ARC
  5
2FE
330
1F
100
AcDbEntity
  8
0
  6
Continuous
 62
     7
370
    25
100
AcDbCircle
 10
0.0
 20
0.0
 30
0.0
 40
36.79999999999962
100
AcDbArc
 50
111.4838126344
 51
112.5161873656
  0
ARC
  5
2FF
330
1F
100
AcDbEntity
  8
0
  6
Continuous
 62
     7
370
    25
100
AcDbCircle
 10
0.0000000001
 20
-0.0000000002
 30
0.0
 40
36.80000000025157
100
AcDbArc
 50
107.4838126344
 51
108.5161873656
  0
ARC
  5
300
330
1F
100
AcDbEntity
  8
0
  6
Continuous
 62
     7
370
    25
100
AcDbCircle
 10
0.0
 20
0.0
 30
0.0
 40
36.8000000000212
100
AcDbArc
 50
103.4838126344
 51
104.5161873656
  0
ARC
  5
301
330
1F
100
AcDbEntity
  8
0
  6
Continuous
 62
     7
370
    25
100
AcDbCircle
 10
0.0
 20
0.0000000001
 30
0.0
 40
36.7999999998783
100
AcDbArc
 50
99.4838126344
 51
100.5161873656
  0
ARC
  5
302
330
1F
100
AcDbEntity
  8
0
  6
Continuous
 62
     7
370
    25
100
AcDbCircle
 10
0.0
 20
0.0
 30
0.0
 40
36.79999999997804
100
AcDbArc
 50
91.4838126344
 51
92.5161873656
  0
ARC
  5
303
330
1F
100
AcDbEntity
  8
0
  6
Continuous
 62
     7
370
    25
100
AcDbCircle
 10
0.0
 20
0.0
 30
0.0
 40
36.79999999996329
100
AcDbArc
 50
95.4838126344
 51
96.5161873656
  0
ARC
  5
304
330
1F
100
AcDbEntity
  8
0
  6
Continuous
 62
     7
370
    25
100
AcDbCircle
 10
0.0
 20
0.0000000001
 30
0.0
 40
36.80000000009803
100
AcDbArc
 50
263.4838126344
 51
264.5161873656
  0
ARC
  5
305
330
1F
100
AcDbEntity
  8
0
  6
Continuous
 62
     7
370
    25
100
AcDbCircle
 10
0.0
 20
0.0000000001
 30
0.0
 40
36.80000000012355
100
AcDbArc
 50
259.4838126344
 51
260.5161873656
  0
ARC
  5
306
330
1F
100
AcDbEntity
  8
0
  6
Continuous
 62
     7
370
    25
100
AcDbCircle
 10
0.0
 20
0.0
 30
0.0
 40
36.80000000000842
100
AcDbArc
 50
255.4838126344
 51
256.5161873656
  0
ARC
  5
307
330
1F
100
AcDbEntity
  8
0
  6
Continuous
 62
     7
370
    25
100
AcDbCircle
 10
0.0
 20
0.0
 30
0.0
 40
36.80000000000279
100
AcDbArc
 50
251.4838126344
 51
252.5161873656
  0
ARC
  5
308
330
1F
100
AcDbEntity
  8
0
  6
Continuous
 62
     7
370
    25
100
AcDbCircle
 10
0.0
 20
0.0
 30
0.0
 40
36.79999999996905
100
AcDbArc
 50
227.4838126344
 51
228.5161873656
  0
ARC
  5
309
330
1F
100
AcDbEntity
  8
0
  6
Continuous
 62
     7
370
    25
100
AcDbCircle
 10
0.0
 20
0.0
 30
0.0
 40
36.80000000001692
100
AcDbArc
 50
231.4838126344
 51
232.5161873656
  0
ARC
  5
30A
330
1F
100
AcDbEntity
  8
0
  6
Continuous
 62
     7
370
    25
100
AcDbCircle
 10
0.0000000001
 20
0.0000000001
 30
0.0
 40
36.80000000012225
100
AcDbArc
 50
235.4838126344
 51
236.5161873656
  0
ARC
  5
30B
330
1F
100
AcDbEntity
  8
0
  6
Continuous
 62
     7
370
    25
100
AcDbCircle
 10
0.0
 20
0.0
 30
0.0
 40
36.79999999998781
100
AcDbArc
 50
239.4838126344
 51
240.5161873656
  0
ARC
  5
30C
330
1F
100
AcDbEntity
  8
0
  6
Continuous
 62
     7
370
    25
100
AcDbCircle
 10
0.0
 20
0.0000000001
 30
0.0
 40
36.80000000009044
100
AcDbArc
 50
243.4838126344
 51
244.5161873656
  0
ARC
  5
30D
330
1F
100
AcDbEntity
  8
0
  6
Continuous
 62
     7
370
    25
100
AcDbCircle
 10
0.0
 20
0.0
 30
0.0
 40
36.79999999999298
100
AcDbArc
 50
247.4838126344
 51
248.5161873656
  0
ARC
  5
30E
330
1F
100
AcDbEntity
  8
0
  6
Continuous
 62
     7
370
    25
100
AcDbCircle
 10
0.0000000001
 20
0.0
 30
0.0
 40
36.8000000000705
100
AcDbArc
 50
211.4838126344
 51
212.5161873656
  0
ARC
  5
30F
330
1F
100
AcDbEntity
  8
0
  6
Continuous
 62
     7
370
    25
100
AcDbCircle
 10
-0.0000000001
 20
0.0
 30
0.0
 40
36.79999999991595
100
AcDbArc
 50
207.4838126344
 51
208.5161873656
  0
ARC
  5
310
330
1F
100
AcDbEntity
  8
0
  6
Continuous
 62
     7
370
    25
100
AcDbCircle
 10
0.0000000001
 20
0.0000000001
 30
0.0
 40
36.80000000008441
100
AcDbArc
 50
223.4838126344
 51
224.5161873656
  0
ARC
  5
311
330
1F
100
AcDbEntity
  8
0
  6
Continuous
 62
     7
370
    25
100
AcDbCircle
 10
-0.0000000001
 20
0.0
 30
0.0
 40
36.79999999992059
100
AcDbArc
 50
215.4838126344
 51
216.5161873656
  0
ARC
  5
312
330
1F
100
AcDbEntity
  8
0
  6
Continuous
 62
     7
370
    25
100
AcDbCircle
 10
0.0000000001
 20
0.0000000001
 30
0.0
 40
36.8000000001199
100
AcDbArc
 50
219.4838126344
 51
220.5161873656
  0
ARC
  5
313
330
1F
100
AcDbEntity
  8
0
  6
Continuous
 62
     7
370
    25
100
AcDbCircle
 10
0.0000000001
 20
0.0
 30
0.0
 40
36.80000000005819
100
AcDbArc
 50
203.4838126344
 51
204.5161873656
  0
ARC
  5
314
330
1F
100
AcDbEntity
  8
0
  6
Continuous
 62
     7
370
    25
100
AcDbCircle
 10
0.0
 20
0.0
 30
0.0
 40
36.80000000004036
100
AcDbArc
 50
199.4838126344
 51
200.5161873656
  0
ARC
  5
315
330
1F
100
AcDbEntity
  8
0
  6
Continuous
 62
     7
370
    25
100
AcDbCircle
 10
-0.0000000002
 20
-0.0000000001
 30
0.0
 40
36.79999999976514
100
AcDbArc
 50
195.4838126344
 51
196.5161873656
  0
ARC
  5
316
330
1F
100
AcDbEntity
  8
0
  6
Continuous
 62
     7
370
    25
100
AcDbCircle
 10
0.0
 20
0.0
 30
0.0
 40
36.80000000003201
100
AcDbArc
 50
191.4838126344
 51
192.5161873656
  0
ARC
  5
317
330
1F
100
AcDbEntity
  8
0
  6
Continuous
 62
     7
370
    25
100
AcDbCircle
 10
0.0
 20
0.0
 30
0.0
 40
36.80000000003033
100
AcDbArc
 50
187.4838126344
 51
188.5161873656
  0
ARC
  5
318
330
1F
100
AcDbEntity
  8
0
  6
Continuous
 62
     7
370
    25
100
AcDbCircle
 10
-0.0000000001
 20
0.0
 30
0.0
 40
36.79999999993122
100
AcDbArc
 50
179.4838126344
 51
180.5161873656
  0
ARC
  5
319
330
1F
100
AcDbEntity
  8
0
  6
Continuous
 62
     7
370
    25
100
AcDbCircle
 10
0.0
 20
0.0
 30
0.0
 40
36.7999999999756
100
AcDbArc
 50
183.4838126344
 51
184.5161873656
  0
ARC
  5
31A
330
1F
100
AcDbEntity
  8
0
  6
Continuous
 62
     7
370
    25
100
AcDbCircle
 10
-0.0000000001
 20
0.0
 30
0.0
 40
36.80000000010769
100
AcDbArc
 50
351.4838126344
 51
352.5161873656
  0
ARC
  5
31B
330
1F
100
AcDbEntity
  8
0
  6
Continuous
 62
     7
370
    25
100
AcDbCircle
 10
0.0
 20
0.0
 30
0.0
 40
36.80000000003152
100
AcDbArc
 50
347.4838126344
 51
348.5161873656
  0
ARC
  5
31C
330
1F
100
AcDbEntity
  8
0
  6
Continuous
 62
     7
370
    25
100
AcDbCircle
 10
0.0
 20
0.0
 30
0.0
 40
36.79999999999039
100
AcDbArc
 50
343.4838126344
 51
344.5161873656
  0
ARC
  5
31D
330
1F
100
AcDbEntity
  8
0
  6
Continuous
 62
     7
370
    25
100
AcDbCircle
 10
0.0
 20
0.0
 30
0.0
 40
36.80000000004284
100
AcDbArc
 50
339.4838126344
 51
340.5161873656
  0
ARC
  5
31E
330
1F
100
AcDbEntity
  8
0
  6
Continuous
 62
     7
370
    25
100
AcDbCircle
 10
-0.0000000002
 20
0.0000000002
 30
0.0
 40
36.80000000025395
100
AcDbArc
 50
315.4838126344
 51
316.5161873656
  0
ARC
  5
31F
330
1F
100
AcDbEntity
  8
0
  6
Continuous
 62
     7
370
    25
100
AcDbCircle
 10
0.0
 20
0.0
 30
0.0
 40
36.80000000005587
100
AcDbArc
 50
319.4838126344
 51
320.5161873656
  0
ARC
  5
320
330
1F
100
AcDbEntity
  8
0
  6
Continuous
 62
     7
370
    25
100
AcDbCircle
 10
-0.0000000001
 20
0.0000000001
 30
0.0
 40
36.80000000010224
100
AcDbArc
 50
323.4838126344
 51
324.5161873656
  0
ARC
  5
321
330
1F
100
AcDbEntity
  8
0
  6
Continuous
 62
     7
370
    25
100
AcDbCircle
 10
0.0
 20
0.0
 30
0.0
 40
36.79999999994218
100
AcDbArc
 50
327.4838126344
 51
328.5161873656
  0
ARC
  5
322
330
1F
100
AcDbEntity
  8
0
  6
Continuous
 62
     7
370
    25
100
AcDbCircle
 10
0.0
 20
0.0
 30
0.0
 40
36.80000000005278
100
AcDbArc
 50
331.4838126344
 51
332.5161873656
  0
ARC
  5
323
330
1F
100
AcDbEntity
  8
0
  6
Continuous
 62
     7
370
    25
100
AcDbCircle
 10
0.0000000001
 20
-0.0000000001
 30
0.0
 40
36.79999999983951
100
AcDbArc
 50
335.4838126344
 51
336.5161873656
  0
ARC
  5
324
330
1F
100
AcDbEntity
  8
0
  6
Continuous
 62
     7
370
    25
100
AcDbCircle
 10
-0.0000000001
 20
0.0000000003
 30
0.0
 40
36.80000000027854
100
AcDbArc
 50
295.4838126344
 51
296.5161873656
  0
ARC
  5
325
330
1F
100
AcDbEntity
  8
0
  6
Continuous
 62
     7
370
    25
100
AcDbCircle
 10
-0.0000000001
 20
0.0000000002
 30
0.0
 40
36.80000000024516
100
AcDbArc
 50
299.4838126344
 51
300.5161873656
  0
ARC
  5
326
330
1F
100
AcDbEntity
  8
0
  6
Continuous
 62
     7
370
    25
100
AcDbCircle
 10
0.0000000001
 20
-0.0000000001
 30
0.0
 40
36.79999999990227
100
AcDbArc
 50
311.4838126344
 51
312.5161873656
  0
ARC
  5
327
330
1F
100
AcDbEntity
  8
0
  6
Continuous
 62
     7
370
    25
100
AcDbCircle
 10
0.0
 20
0.0
 30
0.0
 40
36.80000000000885
100
AcDbArc
 50
303.4838126344
 51
304.5161873656
  0
ARC
  5
328
330
1F
100
AcDbEntity
  8
0
  6
Continuous
 62
     7
370
    25
100
AcDbCircle
 10
-0.0000000001
 20
0.0000000001
 30
0.0
 40
36.80000000017343
100
AcDbArc
 50
307.4838126344
 51
308.5161873656
  0
ARC
  5
329
330
1F
100
AcDbEntity
  8
0
  6
Continuous
 62
     7
370
    25
100
AcDbCircle
 10
-0.0000000001
 20
0.0000000001
 30
0.0
 40
36.80000000015372
100
AcDbArc
 50
291.4838126344
 51
292.5161873656
  0
ARC
  5
32A
330
1F
100
AcDbEntity
  8
0
  6
Continuous
 62
     7
370
    25
100
AcDbCircle
 10
0.0
 20
0.0
 30
0.0
 40
36.80000000003159
100
AcDbArc
 50
287.4838126344
 51
288.5161873656
  0
ARC
  5
32B
330
1F
100
AcDbEntity
  8
0
  6
Continuous
 62
     7
370
    25
100
AcDbCircle
 10
0.0
 20
0.0000000001
 30
0.0
 40
36.80000000009727
100
AcDbArc
 50
283.4838126344
 51
284.5161873656
  0
ARC
  5
32C
330
1F
100
AcDbEntity
  8
0
  6
Continuous
 62
     7
370
    25
100
AcDbCircle
 10
0.0
 20
0.0000000001
 30
0.0
 40
36.8000000000975
100
AcDbArc
 50
279.4838126344
 51
280.5161873656
  0
ARC
  5
32D
330
1F
100
AcDbEntity
  8
0
  6
Continuous
 62
     7
370
    25
100
AcDbCircle
 10
0.0
 20
0.0
 30
0.0
 40
36.80000000004194
100
AcDbArc
 50
275.4838126344
 51
276.5161873656
  0
ARC
  5
32E
330
1F
100
AcDbEntity
  8
0
  6
Continuous
 62
     7
370
    25
100
AcDbCircle
 10
0.0
 20
0.0000000002
 30
0.0
 40
36.80000000022014
100
AcDbArc
 50
267.4838126344
 51
268.5161873656
  0
ARC
  5
32F
330
1F
100
AcDbEntity
  8
0
  6
Continuous
 62
     7
370
    25
100
AcDbCircle
 10
0.0
 20
0.0
 30
0.0
 40
36.80000000003515
100
AcDbArc
 50
271.4838126344
 51
272.5161873656
  0
ARC
  5
330
330
1F
100
AcDbEntity
  8
0
  6
Continuous
 62
     7
370
    25
100
AcDbCircle
 10
0.0
 20
-0.0000000001
 30
0.0
 40
36.80000000012761
100
AcDbArc
 50
83.4838126344
 51
84.5161873656
  0
ARC
  5
331
330
1F
100
AcDbEntity
  8
0
  6
Continuous
 62
     7
370
    25
100
AcDbCircle
 10
0.0
 20
0.0000000001
 30
0.0
 40
36.79999999991405
100
AcDbArc
 50
79.4838126344
 51
80.5161873656
  0
ARC
  5
332
330
1F
100
AcDbEntity
  8
0
  6
Continuous
 62
     7
370
    25
100
AcDbCircle
 10
0.0
 20
0.0
 30
0.0
 40
36.80000000004962
100
AcDbArc
 50
75.4838126344
 51
76.5161873656
  0
ARC
  5
333
330
1F
100
AcDbEntity
  8
0
  6
Continuous
 62
     7
370
    25
100
AcDbCircle
 10
0.0
 20
0.0
 30
0.0
 40
36.80000000003279
100
AcDbArc
 50
71.4838126344
 51
72.5161873656
  0
ARC
  5
334
330
1F
100
AcDbEntity
  8
0
  6
Continuous
 62
     7
370
    25
100
AcDbCircle
 10
0.0
 20
-0.0000000001
 30
0.0
 40
36.80000000006531
100
AcDbArc
 50
67.4838126344
 51
68.5161873656
  0
ARC
  5
335
330
1F
100
AcDbEntity
  8
0
  6
Continuous
 62
     7
370
    25
100
AcDbCircle
 10
-0.0000000001
 20
-0.0000000001
 30
0.0
 40
36.80000000012215
100
AcDbArc
 50
43.4838126344
 51
44.5161873656
  0
ARC
  5
336
330
1F
100
AcDbEntity
  8
0
  6
Continuous
 62
     7
370
    25
100
AcDbCircle
 10
0.0
 20
0.0
 30
0.0
 40
36.80000000004526
100
AcDbArc
 50
47.4838126344
 51
48.5161873656
  0
ARC
  5
337
330
1F
100
AcDbEntity
  8
0
  6
Continuous
 62
     7
370
    25
100
AcDbCircle
 10
0.0
 20
0.0000000001
 30
0.0
 40
36.79999999992781
100
AcDbArc
 50
51.4838126344
 51
52.5161873656
  0
ARC
  5
338
330
1F
100
AcDbEntity
  8
0
  6
Continuous
 62
     7
370
    25
100
AcDbCircle
 10
0.0
 20
0.0
 30
0.0
 40
36.80000000002976
100
AcDbArc
 50
55.4838126344
 51
56.5161873656
  0
ARC
  5
339
330
1F
100
AcDbEntity
  8
0
  6
Continuous
 62
     7
370
    25
100
AcDbCircle
 10
0.0
 20
0.0
 30
0.0
 40
36.80000000004973
100
AcDbArc
 50
59.4838126344
 51
60.5161873656
  0
ARC
  5
33A
330
1F
100
AcDbEntity
  8
0
  6
Continuous
 62
     7
370
    25
100
AcDbCircle
 10
0.0
 20
0.0000000001
 30
0.0
 40
36.7999999999038
100
AcDbArc
 50
63.4838126344
 51
64.5161873656
  0
ARC
  5
33B
330
1F
100
AcDbEntity
  8
0
  6
Continuous
 62
     7
370
    25
100
AcDbCircle
 10
-0.0000000001
 20
0.0
 30
0.0
 40
36.80000000010477
100
AcDbArc
 50
23.4838126344
 51
24.5161873656
  0
ARC
  5
33C
330
1F
100
AcDbEntity
  8
0
  6
Continuous
 62
     7
370
    25
100
AcDbCircle
 10
0.0000000001
 20
0.0000000001
 30
0.0
 40
36.79999999983259
100
AcDbArc
 50
27.4838126344
 51
28.5161873656
  0
ARC
  5
33D
330
1F
100
AcDbEntity
  8
0
  6
Continuous
 62
     7
370
    25
100
AcDbCircle
 10
0.0
 20
0.0
 30
0.0
 40
36.79999999995845
100
AcDbArc
 50
39.4838126344
 51
40.5161873656
  0
ARC
  5
33E
330
1F
100
AcDbEntity
  8
0
  6
Continuous
 62
     7
370
    25
100
AcDbCircle
 10
-0.0000000001
 20
-0.0000000001
 30
0.0
 40
36.80000000016354
100
AcDbArc
 50
31.4838126344
 51
32.5161873656
  0
ARC
  5
33F
330
1F
100
AcDbEntity
  8
0
  6
Continuous
 62
     7
370
    25
100
AcDbCircle
 10
0.0
 20
0.0
 30
0.0
 40
36.80000000005128
100
AcDbArc
 50
35.4838126344
 51
36.5161873656
  0
ARC
  5
340
330
1F
100
AcDbEntity
  8
0
  6
Continuous
 62
     7
370
    25
100
AcDbCircle
 10
-0.0000000001
 20
0.0
 30
0.0
 40
36.80000000010401
100
AcDbArc
 50
19.4838126344
 51
20.5161873656
  0
ARC
  5
341
330
1F
100
AcDbEntity
  8
0
  6
Continuous
 62
     7
370
    25
100
AcDbCircle
 10
-0.0000000001
 20
0.0
 30
0.0
 40
36.8000000000613
100
AcDbArc
 50
15.4838126344
 51
16.5161873656
  0
ARC
  5
342
330
1F
100
AcDbEntity
  8
0
  6
Continuous
 62
     7
370
    25
100
AcDbCircle
 10
-0.0000000001
 20
0.0
 30
0.0
 40
36.80000000005579
100
AcDbArc
 50
11.4838126344
 51
12.5161873656
  0
ARC
  5
343
330
1F
100
AcDbEntity
  8
0
  6
Continuous
 62
     7
370
    25
100
AcDbCircle
 10
0.0
 20
0.0
 30
0.0
 40
36.7999999999972
100
AcDbArc
 50
7.4838126344
 51
8.5161873656
  0
ARC
  5
344
330
1F
100
AcDbEntity
  8
0
  6
Continuous
 62
     7
370
    25
100
AcDbCircle
 10
0.0000000001
 20
0.0
 30
0.0
 40
36.79999999994741
100
AcDbArc
 50
3.4838126344
 51
4.5161873656
  0
ARC
  5
345
330
1F
100
AcDbEntity
  8
0
  6
Continuous
 62
     7
370
    25
100
AcDbCircle
 10
-0.0000000002
 20
0.0
 30
0.0
 40
36.80000000019007
100
AcDbArc
 50
355.4838126344
 51
356.5161873656
  0
ARC
  5
346
330
1F
100
AcDbEntity
  8
0
  6
Continuous
 62
     7
370
    25
100
AcDbCircle
 10
0.0
 20
0.0
 30
0.0
 40
36.80000000000883
100
AcDbArc
 50
359.4838126344
 51
0.5161873656
  0
ARC
  5
347
330
1F
100
AcDbEntity
  8
0
  6
Continuous
 62
     7
370
    25
100
AcDbCircle
 10
-32.4200480448
 20
-12.7942977603
 30
0.0
 40
14.39999999999998
100
AcDbArc
 50
295.413452032
 51
302.8652197672
  0
MTEXT
  5
349
330
1F
100
AcDbEntity
  8
0
  6
Continuous
 62
     7
100
AcDbMText
 10
-36.8
 20
-37.8072266402
 30
0.0
 40
4.83362
 41
0.0
 71
     1
 72
     1
  1
SOLIDWORKS Educational Product.
  7
SLDTEXTSTYLE0
 73
     1
 44
1.0
  0
MTEXT
  5
34A
330
1F
100
AcDbEntity
  8
0
  6
Continuous
 62
     7
100
AcDbMText
 10
-36.8
 20
-45.0576566402
 30
0.0
 40
4.83362
 41
0.0
 71
     1
 72
     1
  1
For Instructional Use Only.
  7
SLDTEXTSTYLE0
 73
     1
 44
1.0
  0
ENDSEC
  0
SECTION
  2
OBJECTS
  0
DICTIONARY
  5
C
330
0
100
AcDbDictionary
281
     1
  3
ACAD_GROUP
350
D
  3
ACAD_LAYOUT
350
1A
  3
ACAD_MLINESTYLE
350
17
  3
ACAD_PLOTSETTINGS
350
19
  3
ACAD_PLOTSTYLENAME
350
E
  3
ACAD_SCALELIST
350
47
  0
DICTIONARY
  5
D
102
{ACAD_REACTORS
330
C
102
}
330
C
100
AcDbDictionary
281
     1
  0
DICTIONARY
  5
1A
102
{ACAD_REACTORS
330
C
102
}
330
C
100
AcDbDictionary
281
     1
  3
Layout1
350
1E
  3
Layout2
350
26
  3
Model
350
22
  0
DICTIONARY
  5
17
102
{ACAD_REACTORS
330
C
102
}
330
C
100
AcDbDictionary
281
     1
  3
Standard
350
18
  0
DICTIONARY
  5
19
102
{ACAD_REACTORS
330
C
102
}
330
C
100
AcDbDictionary
281
     1
  0
ACDBDICTIONARYWDFLT
  5
E
102
{ACAD_REACTORS
330
C
102
}
330
C
100
AcDbDictionary
281
     1
  3
Normal
350
F
100
AcDbDictionaryWithDefault
340
F
  0
DICTIONARY
  5
47
102
{ACAD_REACTORS
330
C
102
}
330
C
100
AcDbDictionary
281
     1
  3
A0
350
48
  3
A1
350
49
  3
A2
350
4A
  3
A3
350
4B
  3
A4
350
4C
  3
A5
350
4D
  3
A6
350
4E
  3
A7
350
4F
  3
A8
350
50
  3
A9
350
51
  3
B0
350
52
  3
B1
350
53
  3
B2
350
54
  3
B3
350
55
  3
B4
350
56
  3
B5
350
57
  3
B6
350
58
  3
B7
350
59
  3
B8
350
5A
  3
B9
350
5B
  3
C0
350
5C
  3
C1
350
5D
  3
C2
350
5E
  3
C3
350
5F
  3
C4
350
60
  3
C5
350
61
  3
C6
350
62
  3
C7
350
63
  3
C8
350
64
  3
C9
350
65
  3
D0
350
66
  3
D1
350
67
  3
D2
350
68
  0
LAYOUT
  5
1E
102
{ACAD_REACTORS
330
1A
102
}
330
1A
100
AcDbPlotSettings
  1

  2
none_device
  4

  6

 40
0.0
 41
0.0
 42
0.0
 43
0.0
 44
0.0
 45
0.0
 46
0.0
 47
0.0
 48
0.0
 49
0.0
140
0.0
141
0.0
142
1.0
143
1.0
 70
   688
 72
     1
 73
     0
 74
     5
  7

 75
    16
147
1.0
148
0.0
149
0.0
100
AcDbLayout
  1
Layout1
 70
     1
 71
     1
 10
0.0
 20
0.0
 11
420.0
 21
297.0
 12
0.0
 22
0.0
 32
0.0
 14
1.0000000000E+20
 24
1.0000000000E+20
 34
1.0000000000E+20
 15
-1.0000000000E+20
 25
-1.0000000000E+20
 35
-1.0000000000E+20
146
0.0
 13
0.0
 23
0.0
 33
0.0
 16
1.0
 26
0.0
 36
0.0
 17
0.0
 27
1.0
 37
0.0
 76
     0
330
1B
  0
LAYOUT
  5
26
102
{ACAD_REACTORS
330
1A
102
}
330
1A
100
AcDbPlotSettings
  1

  2
none_device
  4

  6

 40
0.0
 41
0.0
 42
0.0
 43
0.0
 44
0.0
 45
0.0
 46
0.0
 47
0.0
 48
0.0
 49
0.0
140
0.0
141
0.0
142
1.0
143
1.0
 70
   688
 72
     1
 73
     0
 74
     5
  7

 75
    16
147
1.0
148
0.0
149
0.0
100
AcDbLayout
  1
Layout2
 70
     1
 71
     2
 10
0.0
 20
0.0
 11
0.0
 21
0.0
 12
0.0
 22
0.0
 32
0.0
 14
0.0
 24
0.0
 34
0.0
 15
0.0
 25
0.0
 35
0.0
146
0.0
 13
0.0
 23
0.0
 33
0.0
 16
1.0
 26
0.0
 36
0.0
 17
0.0
 27
1.0
 37
0.0
 76
     0
330
23
  0
LAYOUT
  5
22
102
{ACAD_REACTORS
330
1A
102
}
330
1A
100
AcDbPlotSettings
  1

  2
none_device
  4
ANSI_A_(11.00_x_8.50_Inches)
  6

 40
6.35
 41
19.05
 42
6.35000508
 43
19.05000254
 44
279.4
 45
215.9
 46
133.34999746
 47
88.89999873
 48
0.0
 49
0.0
140
0.0
141
0.0
142
0.1143725905
143
1.0
 70
  1696
 72
     0
 73
     0
 74
     0
  7

 75
     0
147
0.0179189148
148
-1300.4909072572
149
0.0
100
AcDbLayout
  1
Model
 70
     1
 71
     0
 10
0.0
 20
0.0
 11
420.0
 21
297.0
 12
0.0
 22
0.0
 32
0.0
 14
-36.8
 24
-36.7876602485
 34
0.0
 15
36.8
 25
36.7876602485
 35
0.0
146
0.0
 13
0.0
 23
0.0
 33
0.0
 16
1.0
 26
0.0
 36
0.0
 17
0.0
 27
1.0
 37
0.0
 76
     0
330
1F
331
29
  0
MLINESTYLE
  5
18
102
{ACAD_REACTORS
330
17
102
}
330
17
100
AcDbMlineStyle
  2
Standard
 70
     0
  3

 62
   256
 51
90.0
 52
90.0
 71
     2
 49
0.5
 62
   256
  6
BYLAYER
 49
-0.5
 62
   256
  6
BYLAYER
  0
ACDBPLACEHOLDER
  5
F
102
{ACAD_REACTORS
330
E
102
}
330
E
  0
SCALE
  5
48
102
{ACAD_REACTORS
330
47
102
}
330
47
100
AcDbScale
 70
     0
300
1:1
140
1.0
141
1.0
290
     1
  0
SCALE
  5
49
102
{ACAD_REACTORS
330
47
102
}
330
47
100
AcDbScale
 70
     0
300
1:2
140
1.0
141
2.0
290
     0
  0
SCALE
  5
4A
102
{ACAD_REACTORS
330
47
102
}
330
47
100
AcDbScale
 70
     0
300
1:4
140
1.0
141
4.0
290
     0
  0
SCALE
  5
4B
102
{ACAD_REACTORS
330
47
102
}
330
47
100
AcDbScale
 70
     0
300
1:5
140
1.0
141
5.0
290
     0
  0
SCALE
  5
4C
102
{ACAD_REACTORS
330
47
102
}
330
47
100
AcDbScale
 70
     0
300
1:8
140
1.0
141
8.0
290
     0
  0
SCALE
  5
4D
102
{ACAD_REACTORS
330
47
102
}
330
47
100
AcDbScale
 70
     0
300
1:10
140
1.0
141
10.0
290
     0
  0
SCALE
  5
4E
102
{ACAD_REACTORS
330
47
102
}
330
47
100
AcDbScale
 70
     0
300
1:16
140
1.0
141
16.0
290
     0
  0
SCALE
  5
4F
102
{ACAD_REACTORS
330
47
102
}
330
47
100
AcDbScale
 70
     0
300
1:20
140
1.0
141
20.0
290
     0
  0
SCALE
  5
50
102
{ACAD_REACTORS
330
47
102
}
330
47
100
AcDbScale
 70
     0
300
1:30
140
1.0
141
30.0
290
     0
  0
SCALE
  5
51
102
{ACAD_REACTORS
330
47
102
}
330
47
100
AcDbScale
 70
     0
300
1:40
140
1.0
141
40.0
290
     0
  0
SCALE
  5
52
102
{ACAD_REACTORS
330
47
102
}
330
47
100
AcDbScale
 70
     0
300
1:50
140
1.0
141
50.0
290
     0
  0
SCALE
  5
53
102
{ACAD_REACTORS
330
47
102
}
330
47
100
AcDbScale
 70
     0
300
1:100
140
1.0
141
100.0
290
     0
  0
SCALE
  5
54
102
{ACAD_REACTORS
330
47
102
}
330
47
100
AcDbScale
 70
     0
300
2:1
140
2.0
141
1.0
290
     0
  0
SCALE
  5
55
102
{ACAD_REACTORS
330
47
102
}
330
47
100
AcDbScale
 70
     0
300
4:1
140
4.0
141
1.0
290
     0
  0
SCALE
  5
56
102
{ACAD_REACTORS
330
47
102
}
330
47
100
AcDbScale
 70
     0
300
8:1
140
8.0
141
1.0
290
     0
  0
SCALE
  5
57
102
{ACAD_REACTORS
330
47
102
}
330
47
100
AcDbScale
 70
     0
300
10:1
140
10.0
141
1.0
290
     0
  0
SCALE
  5
58
102
{ACAD_REACTORS
330
47
102
}
330
47
100
AcDbScale
 70
     0
300
100:1
140
100.0
141
1.0
290
     0
  0
SCALE
  5
59
102
{ACAD_REACTORS
330
47
102
}
330
47
100
AcDbScale
 70
     0
300
1/128" = 1'-0"
140
0.0078125
141
12.0
290
     0
  0
SCALE
  5
5A
102
{ACAD_REACTORS
330
47
102
}
330
47
100
AcDbScale
 70
     0
300
1/64" = 1'-0"
140
0.015625
141
12.0
290
     0
  0
SCALE
  5
5B
102
{ACAD_REACTORS
330
47
102
}
330
47
100
AcDbScale
 70
     0
300
1/32" = 1'-0"
140
0.03125
141
12.0
290
     0
  0
SCALE
  5
5C
102
{ACAD_REACTORS
330
47
102
}
330
47
100
AcDbScale
 70
     0
300
1/16" = 1'-0"
140
0.0625
141
12.0
290
     0
  0
SCALE
  5
5D
102
{ACAD_REACTORS
330
47
102
}
330
47
100
AcDbScale
 70
     0
300
3/32" = 1'-0"
140
0.09375
141
12.0
290
     0
  0
SCALE
  5
5E
102
{ACAD_REACTORS
330
47
102
}
330
47
100
AcDbScale
 70
     0
300
1/8" = 1'-0"
140
0.125
141
12.0
290
     0
  0
SCALE
  5
5F
102
{ACAD_REACTORS
330
47
102
}
330
47
100
AcDbScale
 70
     0
300
3/16" = 1'-0"
140
0.1875
141
12.0
290
     0
  0
SCALE
  5
60
102
{ACAD_REACTORS
330
47
102
}
330
47
100
AcDbScale
 70
     0
300
1/4" = 1'-0"
140
0.25
141
12.0
290
     0
  0
SCALE
  5
61
102
{ACAD_REACTORS
330
47
102
}
330
47
100
AcDbScale
 70
     0
300
3/8" = 1'-0"
140
0.375
141
12.0
290
     0
  0
SCALE
  5
62
102
{ACAD_REACTORS
330
47
102
}
330
47
100
AcDbScale
 70
     0
300
1/2" = 1'-0"
140
0.5
141
12.0
290
     0
  0
SCALE
  5
63
102
{ACAD_REACTORS
330
47
102
}
330
47
100
AcDbScale
 70
     0
300
3/4" = 1'-0"
140
0.75
141
12.0
290
     0
  0
SCALE
  5
64
102
{ACAD_REACTORS
330
47
102
}
330
47
100
AcDbScale
 70
     0
300
1" = 1'-0"
140
1.0
141
12.0
290
     0
  0
SCALE
  5
65
102
{ACAD_REACTORS
330
47
102
}
330
47
100
AcDbScale
 70
     0
300
1-1/2" = 1'-0"
140
1.5
141
12.0
290
     0
  0
SCALE
  5
66
102
{ACAD_REACTORS
330
47
102
}
330
47
100
AcDbScale
 70
     0
300
3" = 1'-0"
140
3.0
141
12.0
290
     0
  0
SCALE
  5
67
102
{ACAD_REACTORS
330
47
102
}
330
47
100
AcDbScale
 70
     0
300
6" = 1'-0"
140
6.0
141
12.0
290
     0
  0
SCALE
  5
68
102
{ACAD_REACTORS
330
47
102
}
330
47
100
AcDbScale
 70
     0
300
1'-0" = 1'-0"
140
12.0
141
12.0
290
     0
  0
ENDSEC
  0
EOF
